# Blender v2.80 (sub 75) OBJ File: 'borgor.blend'
# www.blender.org
mtllib BunBt.mtl
o BottomBun_Sphere
v -0.074658 0.018181 -0.375330
v -0.137950 0.017177 -0.693520
v -0.162212 0.067757 -0.815493
v -0.180240 0.186206 -0.906127
v -0.191342 0.369841 -0.961940
v -0.001428 0.533420 -0.007179
v -0.318190 0.018181 -0.212607
v -0.587938 0.017177 -0.392847
v -0.691342 0.067757 -0.461940
v -0.768178 0.186206 -0.513280
v -0.815493 0.369841 -0.544895
v -0.006087 0.533420 -0.004067
v -0.375331 0.018181 0.074658
v -0.693520 0.017177 0.137950
v -0.815493 0.067757 0.162212
v -0.906128 0.186206 0.180240
v -0.961940 0.369841 0.191342
v -0.007180 0.533420 0.001428
v -0.212608 0.018181 0.318190
v -0.392848 0.017177 0.587938
v -0.461940 0.067757 0.691342
v -0.513280 0.186206 0.768178
v -0.544895 0.369841 0.815493
v -0.004067 0.533420 0.006087
v 0.074658 0.018181 0.375331
v 0.137950 0.017177 0.693520
v 0.162212 0.067757 0.815493
v 0.180240 0.186206 0.906128
v 0.191342 0.369841 0.961940
v 0.001428 0.533420 0.007180
v 0.000000 0.002534 0.000001
v 0.318189 0.018181 0.212608
v 0.587938 0.017176 0.392848
v 0.691341 0.067757 0.461940
v 0.768178 0.186206 0.513280
v 0.815493 0.369841 0.544895
v 0.006086 0.533420 0.004067
v 0.375330 0.018181 -0.074658
v 0.693520 0.017176 -0.137949
v 0.815493 0.067757 -0.162211
v 0.906127 0.186206 -0.180240
v 0.961939 0.369841 -0.191342
v 0.007179 0.533420 -0.001428
v 0.212607 0.018181 -0.318189
v 0.392847 0.017177 -0.587937
v 0.461939 0.067757 -0.691341
v 0.513280 0.186206 -0.768177
v 0.544895 0.369841 -0.815492
v 0.004067 0.533420 -0.006086
v -0.194503 0.534342 -0.977830
v -0.828965 0.534342 -0.553896
v -0.977830 0.534342 0.194503
v -0.553896 0.534342 0.828965
v 0.194503 0.534341 0.977831
v 0.828965 0.534341 0.553896
v 0.977830 0.534341 -0.194502
v 0.553896 0.534341 -0.828964
vt 0.685709 0.753385
vt 0.747485 0.746257
vt 0.708741 0.794945
vt 0.622858 0.900643
vt 0.768267 0.944434
vt 0.771728 0.980728
vt 0.599875 0.928563
vt 0.754479 0.808180
vt 0.640101 0.661661
vt 0.611796 0.761847
vt 0.586556 0.764551
vt 0.620291 0.645950
vt 0.551005 0.768365
vt 0.591427 0.623600
vt 0.662081 0.853033
vt 0.645913 0.872723
vt 0.760195 0.860712
vt 0.675849 0.836037
vt 0.796313 0.785148
vt 0.633484 0.759410
vt 0.903041 0.872194
vt 0.931356 0.895586
vt 0.762437 0.882590
vt 0.837697 0.818374
vt 0.809566 0.739135
vt 0.764881 0.908113
vt 0.947390 0.724544
vt 0.984371 0.720905
vt 0.854856 0.832330
vt 0.862485 0.733157
vt 0.786237 0.697270
vt 0.874764 0.848745
vt 0.872035 0.588201
vt 0.895038 0.558680
vt 0.884600 0.730775
vt 0.740196 0.684331
vt 0.910463 0.728159
vt 0.819160 0.655474
vt 0.832957 0.638062
vt 0.723107 0.548119
vt 0.718316 0.511888
vt 0.849200 0.617784
vt 0.733777 0.631772
vt 0.698659 0.707667
vt 0.731122 0.609879
vt 0.563022 0.601416
vt 0.728107 0.584338
vt 0.657257 0.675165
vt 0.515492 0.772163
vt 0.762213 0.254298
vt 0.781834 0.454335
vt 0.621531 0.405708
vt 0.749105 0.250386
vt 0.542565 0.257972
vt 0.742602 0.238351
vt 0.591192 0.097669
vt 0.746514 0.225243
vt 0.738928 0.018702
vt 0.758549 0.218740
vt 0.899231 0.067330
vt 0.771657 0.222652
vt 0.978197 0.215066
vt 0.778160 0.234687
vt 0.929569 0.375369
vt 0.774248 0.247795
vn -0.0246 -0.9990 -0.0368
vn -0.9767 -0.0906 -0.1943
vn -0.0434 -0.9990 -0.0086
vn 0.1583 -0.5847 -0.7956
vn 0.1876 -0.2752 -0.9429
vn -0.4507 -0.5847 -0.6745
vn -0.5341 -0.2752 -0.7994
vn 0.0033 -1.0000 0.0007
vn -0.0368 -0.9990 0.0246
vn -0.2238 -0.9152 -0.3350
vn -0.8280 -0.0906 0.5533
vn -0.3952 -0.9152 -0.0786
vn 0.0028 -1.0000 -0.0019
vn -0.0086 -0.9990 0.0434
vn -0.7956 -0.5847 -0.1583
vn -0.9429 -0.2752 -0.1876
vn -0.1943 -0.0906 0.9767
vn -0.3350 -0.9152 0.2238
vn 0.0007 -1.0000 -0.0033
vn 0.0246 -0.9990 0.0368
vn -0.6745 -0.5847 0.4507
vn -0.7994 -0.2752 0.5341
vn 0.5533 -0.0906 0.8280
vn -0.0786 -0.9152 0.3952
vn 0.0434 -0.9990 0.0086
vn -0.1583 -0.5847 0.7956
vn -0.1876 -0.2752 0.9429
vn -0.0019 -1.0000 -0.0028
vn 0.2238 -0.9152 0.3350
vn 0.9767 -0.0906 0.1943
vn 0.4507 -0.5847 0.6745
vn 0.5341 -0.2752 0.7994
vn -0.0033 -1.0000 -0.0007
vn 0.0368 -0.9990 -0.0246
vn 0.3952 -0.9152 0.0786
vn 0.8280 -0.0906 -0.5533
vn 0.7956 -0.5847 0.1583
vn 0.9429 -0.2752 0.1876
vn -0.0028 -1.0000 0.0019
vn 0.0086 -0.9990 -0.0434
vn 0.1943 -0.0906 -0.9767
vn 0.3350 -0.9152 -0.2238
vn 0.6745 -0.5847 -0.4507
vn 0.7994 -0.2752 -0.5341
vn -0.0007 -1.0000 0.0033
vn -0.5533 -0.0906 -0.8280
vn 0.0786 -0.9152 -0.3952
vn 0.0019 -1.0000 0.0028
vn -0.0002 1.0000 0.0010
vn 0.0006 1.0000 0.0008
vn 0.0010 1.0000 0.0002
vn 0.0008 1.0000 -0.0006
vn 0.0002 1.0000 -0.0010
vn -0.0006 1.0000 -0.0008
vn -0.0010 1.0000 -0.0002
vn -0.0008 1.0000 0.0006
usemtl BorgorBrown
s off
f 1/1/1 31/2/1 7/3/1
f 11/4/2 17/5/2 52/6/2 51/7/2
f 13/8/3 7/3/3 31/2/3
f 46/9/4 3/10/4 4/11/4 47/12/4
f 47/12/5 4/11/5 5/13/5 48/14/5
f 3/10/6 9/15/6 10/16/6 4/11/6
f 4/11/7 10/16/7 11/4/7 5/13/7
f 13/8/8 14/17/8 8/18/8 7/3/8
f 19/19/9 13/8/9 31/2/9
f 2/20/10 8/18/10 9/15/10 3/10/10
f 17/5/11 23/21/11 53/22/11 52/6/11
f 8/18/12 14/17/12 15/23/12 9/15/12
f 19/19/13 20/24/13 14/17/13 13/8/13
f 25/25/14 19/19/14 31/2/14
f 9/15/15 15/23/15 16/26/15 10/16/15
f 10/16/16 16/26/16 17/5/16 11/4/16
f 23/21/17 29/27/17 54/28/17 53/22/17
f 14/17/18 20/24/18 21/29/18 15/23/18
f 25/25/19 26/30/19 20/24/19 19/19/19
f 31/2/20 32/31/20 25/25/20
f 15/23/21 21/29/21 22/32/21 16/26/21
f 16/26/22 22/32/22 23/21/22 17/5/22
f 29/27/23 36/33/23 55/34/23 54/28/23
f 20/24/24 26/30/24 27/35/24 21/29/24
f 32/31/25 31/2/25 38/36/25
f 21/29/26 27/35/26 28/37/26 22/32/26
f 22/32/27 28/37/27 29/27/27 23/21/27
f 32/31/28 33/38/28 26/30/28 25/25/28
f 26/30/29 33/38/29 34/39/29 27/35/29
f 36/33/30 42/40/30 56/41/30 55/34/30
f 27/35/31 34/39/31 35/42/31 28/37/31
f 28/37/32 35/42/32 36/33/32 29/27/32
f 38/36/33 39/43/33 33/38/33 32/31/33
f 44/44/34 38/36/34 31/2/34
f 33/38/35 39/43/35 40/45/35 34/39/35
f 42/40/36 48/14/36 57/46/36 56/41/36
f 34/39/37 40/45/37 41/47/37 35/42/37
f 35/42/38 41/47/38 42/40/38 36/33/38
f 44/44/39 45/48/39 39/43/39 38/36/39
f 31/2/40 1/1/40 44/44/40
f 48/14/41 5/13/41 50/49/41 57/46/41
f 39/43/42 45/48/42 46/9/42 40/45/42
f 40/45/43 46/9/43 47/12/43 41/47/43
f 41/47/44 47/12/44 48/14/44 42/40/44
f 44/44/45 1/1/45 2/20/45 45/48/45
f 5/13/46 11/4/46 51/7/46 50/49/46
f 45/48/47 2/20/47 3/10/47 46/9/47
f 2/20/48 1/1/48 7/3/48 8/18/48
usemtl BorgorLight
f 49/50/49 57/51/49 50/52/49 6/53/49
f 51/54/50 12/55/50 6/53/50 50/52/50
f 52/56/51 18/57/51 12/55/51 51/54/51
f 53/58/52 24/59/52 18/57/52 52/56/52
f 54/60/53 30/61/53 24/59/53 53/58/53
f 55/62/54 37/63/54 30/61/54 54/60/54
f 56/64/55 43/65/55 37/63/55 55/62/55
f 57/51/56 49/50/56 43/65/56 56/64/56
