# Blender v2.80 (sub 75) OBJ File: 'borgor.blend'
# www.blender.org
mtllib BunMd.mtl
o MiddleBun_Cylinder.003
v 0.000000 0.003041 0.000000
v 0.000000 0.209319 0.000000
v 0.000000 0.003041 -1.000000
v 0.000000 0.209319 -1.000000
v 0.309017 0.003041 -0.951057
v 0.309017 0.209319 -0.951057
v 0.587785 0.003041 -0.809017
v 0.587785 0.209319 -0.809017
v 0.809017 0.003041 -0.587785
v 0.809017 0.209319 -0.587785
v 0.951057 0.003041 -0.309017
v 0.951057 0.209319 -0.309017
v 1.000000 0.003041 0.000000
v 1.000000 0.209319 0.000000
v 0.951056 0.003041 0.309017
v 0.951056 0.209319 0.309017
v 0.809017 0.003041 0.587785
v 0.809017 0.209319 0.587785
v 0.587785 0.003041 0.809017
v 0.587785 0.209319 0.809017
v 0.309017 0.003041 0.951057
v 0.309017 0.209319 0.951057
v -0.000000 0.003041 1.000000
v -0.000000 0.209319 1.000000
v -0.309017 0.003041 0.951056
v -0.309017 0.209319 0.951056
v -0.587786 0.003041 0.809017
v -0.587786 0.209319 0.809017
v -0.809017 0.003041 0.587785
v -0.809017 0.209319 0.587785
v -0.951057 0.003041 0.309016
v -0.951057 0.209319 0.309016
v -1.000000 0.003041 -0.000001
v -1.000000 0.209319 -0.000001
v -0.951056 0.003041 -0.309018
v -0.951056 0.209319 -0.309018
v -0.809016 0.003041 -0.587786
v -0.809016 0.209319 -0.587786
v -0.587784 0.003041 -0.809018
v -0.587784 0.209319 -0.809018
v -0.309016 0.003041 -0.951057
v -0.309016 0.209319 -0.951057
vt 0.748721 0.244619
vt 0.748721 0.484931
vt 0.822885 0.473170
vt 0.248721 0.244619
vt 0.322885 0.473170
vt 0.248721 0.484931
vt 0.889790 0.439036
vt 0.389789 0.439036
vt 0.942885 0.385872
vt 0.442885 0.385872
vt 0.976974 0.318880
vt 0.476974 0.318880
vt 0.988721 0.244619
vt 0.488721 0.244619
vt 0.976974 0.170358
vt 0.476974 0.170358
vt 0.942885 0.103366
vt 0.442885 0.103366
vt 0.889790 0.050202
vt 0.389789 0.050202
vt 0.822885 0.016068
vt 0.322885 0.016068
vt 0.748721 0.004307
vt 0.248721 0.004307
vt 0.674557 0.016068
vt 0.174557 0.016068
vt 0.607652 0.050202
vt 0.107652 0.050202
vt 0.554557 0.103366
vt 0.054557 0.103366
vt 0.520467 0.170358
vt 0.020467 0.170358
vt 0.508721 0.244619
vt 0.008721 0.244619
vt 0.520468 0.318880
vt 0.020468 0.318880
vt 0.554557 0.385872
vt 0.054557 0.385872
vt 0.607653 0.439036
vt 0.107653 0.439036
vt 0.674557 0.473170
vt 0.174557 0.473170
vt 0.988186 0.711385
vt 0.988186 0.848605
vt 0.939426 0.848605
vt 0.939426 0.711385
vt 0.890667 0.848605
vt 0.890667 0.711385
vt 0.841908 0.848605
vt 0.841908 0.711385
vt 0.793148 0.848605
vt 0.793148 0.711385
vt 0.744389 0.848605
vt 0.744389 0.711385
vt 0.695629 0.848605
vt 0.695629 0.711385
vt 0.646870 0.848605
vt 0.646870 0.711385
vt 0.598110 0.848605
vt 0.598110 0.711385
vt 0.549351 0.848605
vt 0.549351 0.711385
vt 0.500591 0.848605
vt 0.500591 0.711385
vt 0.451832 0.848605
vt 0.451832 0.711385
vt 0.403073 0.848605
vt 0.403073 0.711385
vt 0.354313 0.848605
vt 0.354313 0.711385
vt 0.305554 0.848605
vt 0.305554 0.711385
vt 0.256794 0.848605
vt 0.256794 0.711385
vt 0.208035 0.848605
vt 0.208035 0.711385
vt 0.159275 0.848605
vt 0.159275 0.711385
vt 0.110516 0.848605
vt 0.110516 0.711385
vt 0.061757 0.848605
vt 0.061757 0.711385
vt 0.012997 0.848605
vt 0.012997 0.711385
vn 0.0000 -1.0000 0.0000
vn 0.0000 1.0000 0.0000
vn 0.1564 0.0000 -0.9877
vn 0.4540 0.0000 -0.8910
vn 0.7071 0.0000 -0.7071
vn 0.8910 0.0000 -0.4540
vn 0.9877 0.0000 -0.1564
vn 0.9877 0.0000 0.1564
vn 0.8910 0.0000 0.4540
vn 0.7071 0.0000 0.7071
vn 0.4540 0.0000 0.8910
vn 0.1564 0.0000 0.9877
vn -0.1564 0.0000 0.9877
vn -0.4540 0.0000 0.8910
vn -0.7071 0.0000 0.7071
vn -0.8910 0.0000 0.4540
vn -0.9877 0.0000 0.1564
vn -0.9877 0.0000 -0.1564
vn -0.8910 0.0000 -0.4540
vn -0.7071 0.0000 -0.7071
vn -0.4540 0.0000 -0.8910
vn -0.1564 0.0000 -0.9877
usemtl BorgorLight
s off
f 1/1/1 3/2/1 5/3/1
f 2/4/2 6/5/2 4/6/2
f 1/1/1 5/3/1 7/7/1
f 2/4/2 8/8/2 6/5/2
f 1/1/1 7/7/1 9/9/1
f 2/4/2 10/10/2 8/8/2
f 1/1/1 9/9/1 11/11/1
f 2/4/2 12/12/2 10/10/2
f 1/1/1 11/11/1 13/13/1
f 2/4/2 14/14/2 12/12/2
f 1/1/1 13/13/1 15/15/1
f 2/4/2 16/16/2 14/14/2
f 1/1/1 15/15/1 17/17/1
f 2/4/2 18/18/2 16/16/2
f 1/1/1 17/17/1 19/19/1
f 2/4/2 20/20/2 18/18/2
f 1/1/1 19/19/1 21/21/1
f 2/4/2 22/22/2 20/20/2
f 1/1/1 21/21/1 23/23/1
f 2/4/2 24/24/2 22/22/2
f 1/1/1 23/23/1 25/25/1
f 2/4/2 26/26/2 24/24/2
f 1/1/1 25/25/1 27/27/1
f 2/4/2 28/28/2 26/26/2
f 1/1/1 27/27/1 29/29/1
f 2/4/2 30/30/2 28/28/2
f 1/1/1 29/29/1 31/31/1
f 2/4/2 32/32/2 30/30/2
f 1/1/1 31/31/1 33/33/1
f 2/4/2 34/34/2 32/32/2
f 1/1/1 33/33/1 35/35/1
f 2/4/2 36/36/2 34/34/2
f 1/1/1 35/35/1 37/37/1
f 2/4/2 38/38/2 36/36/2
f 1/1/1 37/37/1 39/39/1
f 2/4/2 40/40/2 38/38/2
f 1/1/1 39/39/1 41/41/1
f 2/4/2 42/42/2 40/40/2
f 1/1/1 41/41/1 3/2/1
f 2/4/2 4/6/2 42/42/2
usemtl BorgorBrown
f 3/43/3 4/44/3 6/45/3 5/46/3
f 5/46/4 6/45/4 8/47/4 7/48/4
f 7/48/5 8/47/5 10/49/5 9/50/5
f 9/50/6 10/49/6 12/51/6 11/52/6
f 11/52/7 12/51/7 14/53/7 13/54/7
f 13/54/8 14/53/8 16/55/8 15/56/8
f 15/56/9 16/55/9 18/57/9 17/58/9
f 17/58/10 18/57/10 20/59/10 19/60/10
f 19/60/11 20/59/11 22/61/11 21/62/11
f 21/62/12 22/61/12 24/63/12 23/64/12
f 23/64/13 24/63/13 26/65/13 25/66/13
f 25/66/14 26/65/14 28/67/14 27/68/14
f 27/68/15 28/67/15 30/69/15 29/70/15
f 29/70/16 30/69/16 32/71/16 31/72/16
f 31/72/17 32/71/17 34/73/17 33/74/17
f 33/74/18 34/73/18 36/75/18 35/76/18
f 35/76/19 36/75/19 38/77/19 37/78/19
f 37/78/20 38/77/20 40/79/20 39/80/20
f 39/80/21 40/79/21 42/81/21 41/82/21
f 41/82/22 42/81/22 4/83/22 3/84/22
