# Blender v2.80 (sub 75) OBJ File: 'borgor.blend'
# www.blender.org
mtllib BunMd.mtl
o MiddleBun_Cylinder.003
v 0.000000 0.003041 0.000000
v 0.000000 0.209319 0.000000
v 0.000000 0.003041 -1.000000
v 0.000000 0.209319 -1.000000
v 0.587785 0.003041 -0.809017
v 0.587785 0.209319 -0.809017
v 0.951057 0.003041 -0.309017
v 0.951057 0.209319 -0.309017
v 0.951056 0.003041 0.309017
v 0.951056 0.209319 0.309017
v 0.587785 0.003041 0.809017
v 0.587785 0.209319 0.809017
v -0.000000 0.003041 1.000000
v -0.000000 0.209319 1.000000
v -0.587786 0.003041 0.809017
v -0.587786 0.209319 0.809017
v -0.951057 0.003041 0.309016
v -0.951057 0.209319 0.309016
v -0.951056 0.003041 -0.309018
v -0.951056 0.209319 -0.309018
v -0.587784 0.003041 -0.809018
v -0.587784 0.209319 -0.809018
vt 0.248721 0.244619
vt 0.389789 0.439036
vt 0.248721 0.484931
vt 0.889790 0.439036
vt 0.976974 0.318880
vt 0.748721 0.244619
vt 0.476974 0.318880
vt 0.976974 0.170358
vt 0.476974 0.170358
vt 0.889790 0.050202
vt 0.389789 0.050202
vt 0.748721 0.004307
vt 0.248721 0.004307
vt 0.607652 0.050202
vt 0.107652 0.050202
vt 0.520467 0.170358
vt 0.020467 0.170358
vt 0.520468 0.318880
vt 0.020468 0.318880
vt 0.607653 0.439036
vt 0.107653 0.439036
vt 0.748721 0.484931
vt 0.988186 0.848605
vt 0.890667 0.848605
vt 0.890667 0.711385
vt 0.988186 0.711385
vt 0.793148 0.848605
vt 0.793148 0.711385
vt 0.695629 0.848605
vt 0.695629 0.711385
vt 0.598110 0.848605
vt 0.598110 0.711385
vt 0.500591 0.848605
vt 0.500591 0.711385
vt 0.403073 0.848605
vt 0.403073 0.711385
vt 0.305554 0.848605
vt 0.305554 0.711385
vt 0.208035 0.848605
vt 0.208035 0.711385
vt 0.110516 0.848605
vt 0.110516 0.711385
vt 0.012997 0.848605
vt 0.012997 0.711385
vn 0.0000 1.0000 0.0000
vn 0.0000 -1.0000 0.0000
vn 0.3090 0.0000 -0.9511
vn 0.8090 0.0000 -0.5878
vn 1.0000 0.0000 0.0000
vn 0.8090 0.0000 0.5878
vn 0.3090 0.0000 0.9511
vn -0.3090 0.0000 0.9511
vn -0.8090 0.0000 0.5878
vn -1.0000 0.0000 -0.0000
vn -0.8090 0.0000 -0.5878
vn -0.3090 0.0000 -0.9511
usemtl BorgorLight
s off
f 2/1/1 6/2/1 4/3/1
f 5/4/2 7/5/2 1/6/2
f 2/1/1 8/7/1 6/2/1
f 7/5/2 9/8/2 1/6/2
f 2/1/1 10/9/1 8/7/1
f 9/8/2 11/10/2 1/6/2
f 2/1/1 12/11/1 10/9/1
f 11/10/2 13/12/2 1/6/2
f 2/1/1 14/13/1 12/11/1
f 13/12/2 15/14/2 1/6/2
f 2/1/1 16/15/1 14/13/1
f 15/14/2 17/16/2 1/6/2
f 2/1/1 18/17/1 16/15/1
f 17/16/2 19/18/2 1/6/2
f 2/1/1 20/19/1 18/17/1
f 19/18/2 21/20/2 1/6/2
f 2/1/1 22/21/1 20/19/1
f 21/20/2 3/22/2 1/6/2
f 2/1/1 4/3/1 22/21/1
f 3/22/2 5/4/2 1/6/2
usemtl BorgorBrown
f 4/23/3 6/24/3 5/25/3 3/26/3
f 6/24/4 8/27/4 7/28/4 5/25/4
f 8/27/5 10/29/5 9/30/5 7/28/5
f 10/29/6 12/31/6 11/32/6 9/30/6
f 12/31/7 14/33/7 13/34/7 11/32/7
f 14/33/8 16/35/8 15/36/8 13/34/8
f 16/35/9 18/37/9 17/38/9 15/36/9
f 18/37/10 20/39/10 19/40/10 17/38/10
f 20/39/11 22/41/11 21/42/11 19/40/11
f 22/41/12 4/43/12 3/44/12 21/42/12
