# Blender v2.80 (sub 75) OBJ File: 'borgor.blend'
# www.blender.org
mtllib BunTp.mtl
o TopBun_Sphere.001
v 0.074658 0.565796 -0.375330
v 0.137950 0.468197 -0.693520
v 0.180240 0.223368 -0.906127
v 0.001428 0.095466 -0.007179
v 0.318190 0.565796 -0.212607
v 0.587938 0.468197 -0.392847
v 0.768178 0.223367 -0.513280
v 0.006087 0.095466 -0.004067
v 0.375331 0.565796 0.074658
v 0.693520 0.468197 0.137950
v 0.906128 0.223367 0.180240
v 0.007180 0.095466 0.001428
v 0.212608 0.565796 0.318190
v 0.392848 0.468197 0.587938
v 0.513280 0.223368 0.768178
v 0.004067 0.095466 0.006087
v -0.074657 0.565796 0.375331
v -0.137949 0.468197 0.693520
v -0.180240 0.223368 0.906128
v -0.001428 0.095466 0.007180
v 0.000000 0.621447 0.000001
v -0.318189 0.565797 0.212608
v -0.587937 0.468198 0.392848
v -0.768177 0.223368 0.513280
v -0.006086 0.095466 0.004067
v -0.375330 0.565797 -0.074658
v -0.693519 0.468198 -0.137949
v -0.906127 0.223369 -0.180240
v -0.007179 0.095466 -0.001428
v -0.212607 0.565797 -0.318189
v -0.392847 0.468197 -0.587937
v -0.513280 0.223368 -0.768177
v -0.004067 0.095466 -0.006086
v 0.194503 -0.003243 -0.977830
v 0.828965 -0.003243 -0.553896
v 0.977830 -0.003243 0.194503
v 0.553896 -0.003243 0.828965
v -0.194503 -0.003243 0.977831
v -0.828965 -0.003242 0.553896
v -0.977830 -0.003242 -0.194502
v -0.553896 -0.003242 -0.828964
vt 0.258258 0.745757
vt 0.215668 0.781642
vt 0.202774 0.741071
vt 0.243707 0.903327
vt 0.235526 0.981969
vt 0.076187 0.896502
vt 0.137036 0.846834
vt 0.253482 0.801295
vt 0.248974 0.850985
vt 0.177498 0.813581
vt 0.101023 0.732103
vt 0.153155 0.736805
vt 0.359725 0.867817
vt 0.409852 0.929624
vt 0.294202 0.788445
vt 0.326265 0.826882
vt 0.416763 0.759931
vt 0.496711 0.767958
vt 0.313898 0.750473
vt 0.363873 0.754851
vt 0.379806 0.643412
vt 0.440858 0.590813
vt 0.300876 0.709711
vt 0.339138 0.677366
vt 0.271530 0.588099
vt 0.277789 0.509426
vt 0.262872 0.690193
vt 0.266967 0.640404
vt 0.156446 0.625082
vt 0.105515 0.564345
vt 0.222294 0.703240
vt 0.190146 0.665250
vt 0.023389 0.725154
vt 0.424190 0.379961
vt 0.272838 0.255539
vt 0.276586 0.242757
vt 0.471587 0.223711
vt 0.280190 0.456931
vt 0.261149 0.261927
vt 0.123942 0.409533
vt 0.248366 0.258178
vt 0.046975 0.265534
vt 0.241977 0.246488
vt 0.094373 0.109284
vt 0.245725 0.233706
vt 0.238372 0.032315
vt 0.257414 0.227318
vt 0.394619 0.079712
vt 0.270197 0.231068
vn 0.0864 0.9878 -0.1293
vn 0.9399 0.2856 -0.1870
vn 0.3037 0.9509 -0.0604
vn 0.4300 0.6332 -0.6436
vn 0.7968 0.2856 0.5324
vn 0.7592 0.6332 -0.1510
vn 0.2574 0.9509 0.1720
vn 0.1870 0.2856 0.9399
vn 0.6436 0.6332 0.4300
vn 0.0604 0.9509 0.3037
vn 0.1510 0.6332 0.7592
vn -0.5324 0.2856 0.7968
vn -0.1720 0.9509 0.2574
vn -0.4300 0.6332 0.6436
vn -0.9399 0.2856 0.1870
vn -0.3037 0.9509 0.0604
vn -0.7592 0.6332 0.1510
vn -0.7968 0.2856 -0.5324
vn -0.2574 0.9509 -0.1720
vn -0.1870 0.2856 -0.9399
vn -0.6436 0.6332 -0.4300
vn -0.0604 0.9509 -0.3037
vn -0.1510 0.6332 -0.7592
vn 0.1525 0.9878 -0.0303
vn 0.5324 0.2856 -0.7968
vn -0.0303 0.9878 -0.1525
vn -0.1293 0.9878 -0.0864
vn -0.1525 0.9878 0.0303
vn -0.0864 0.9878 0.1293
vn 0.0303 0.9878 0.1525
vn 0.1293 0.9878 0.0864
vn 0.1720 0.9509 -0.2574
vn -0.0596 -0.9942 0.0892
vn -0.1053 -0.9942 0.0209
vn -0.0892 -0.9942 -0.0596
vn -0.0209 -0.9942 -0.1053
vn 0.0596 -0.9942 -0.0892
vn 0.1053 -0.9942 -0.0209
vn 0.0892 -0.9942 0.0596
vn 0.0209 -0.9942 0.1053
usemtl BorgorBrown
s off
f 21/1/1 5/2/1 1/3/1
f 11/4/2 36/5/2 35/6/2 7/7/2
f 9/8/3 10/9/3 6/10/3 5/2/3
f 3/11/4 2/12/4 6/10/4 7/7/4
f 15/13/5 37/14/5 36/5/5 11/4/5
f 10/9/6 11/4/6 7/7/6 6/10/6
f 13/15/7 14/16/7 10/9/7 9/8/7
f 19/17/8 38/18/8 37/14/8 15/13/8
f 14/16/9 15/13/9 11/4/9 10/9/9
f 17/19/10 18/20/10 14/16/10 13/15/10
f 18/20/11 19/17/11 15/13/11 14/16/11
f 24/21/12 39/22/12 38/18/12 19/17/12
f 22/23/13 23/24/13 18/20/13 17/19/13
f 23/24/14 24/21/14 19/17/14 18/20/14
f 28/25/15 40/26/15 39/22/15 24/21/15
f 26/27/16 27/28/16 23/24/16 22/23/16
f 27/28/17 28/25/17 24/21/17 23/24/17
f 32/29/18 41/30/18 40/26/18 28/25/18
f 30/31/19 31/32/19 27/28/19 26/27/19
f 32/29/20 3/11/20 34/33/20 41/30/20
f 27/28/21 31/32/21 32/29/21 28/25/21
f 30/31/22 1/3/22 2/12/22 31/32/22
f 31/32/23 2/12/23 3/11/23 32/29/23
f 5/2/24 21/1/24 9/8/24
f 7/7/25 35/6/25 34/33/25 3/11/25
f 30/31/26 21/1/26 1/3/26
f 26/27/27 21/1/27 30/31/27
f 22/23/28 21/1/28 26/27/28
f 17/19/29 21/1/29 22/23/29
f 13/15/30 21/1/30 17/19/30
f 9/8/31 21/1/31 13/15/31
f 2/12/32 1/3/32 5/2/32 6/10/32
usemtl BorgorLight
f 35/34/33 8/35/33 4/36/33 34/37/33
f 36/38/34 12/39/34 8/35/34 35/34/34
f 37/40/35 16/41/35 12/39/35 36/38/35
f 38/42/36 20/43/36 16/41/36 37/40/36
f 39/44/37 25/45/37 20/43/37 38/42/37
f 40/46/38 29/47/38 25/45/38 39/44/38
f 41/48/39 33/49/39 29/47/39 40/46/39
f 33/49/40 41/48/40 34/37/40 4/36/40
