{
    "asset" : {
        "generator" : "Khronos glTF Blender I/O v0.9.36",
        "version" : "2.0"
    },
    "scene" : 0,
    "scenes" : [
        {
            "name" : "Scene",
            "nodes" : [
                0
            ]
        }
    ],
    "nodes" : [
        {
            "mesh" : 0,
            "name" : "Cabinet",
            "scale" : [
                1,
                0.546164333820343,
                1
            ]
        }
    ],
    "materials" : [
        {
            "doubleSided" : true,
            "name" : "Cabin",
            "pbrMetallicRoughness" : {
                "baseColorFactor" : [
                    0.727751612663269,
                    0.6993259191513062,
                    1,
                    1
                ],
                "metallicFactor" : 0,
                "roughnessFactor" : 0.5
            }
        },
        {
            "doubleSided" : true,
            "name" : "CabinHandle",
            "pbrMetallicRoughness" : {
                "baseColorFactor" : [
                    1,
                    0.2911212742328644,
                    0.7336986064910889,
                    1
                ],
                "metallicFactor" : 0,
                "roughnessFactor" : 0.5
            }
        }
    ],
    "meshes" : [
        {
            "name" : "Cube.014",
            "primitives" : [
                {
                    "attributes" : {
                        "POSITION" : 0,
                        "NORMAL" : 1,
                        "TEXCOORD_0" : 2
                    },
                    "indices" : 3,
                    "material" : 0
                },
                {
                    "attributes" : {
                        "POSITION" : 4,
                        "NORMAL" : 5,
                        "TEXCOORD_0" : 6
                    },
                    "indices" : 7,
                    "material" : 1
                }
            ]
        }
    ],
    "accessors" : [
        {
            "bufferView" : 0,
            "componentType" : 5126,
            "count" : 792,
            "max" : [
                3.0687434673309326,
                11.871429443359375,
                9.020853042602539
            ],
            "min" : [
                -3.393836259841919,
                -0.0684504508972168,
                -9.149638175964355
            ],
            "type" : "VEC3"
        },
        {
            "bufferView" : 1,
            "componentType" : 5126,
            "count" : 792,
            "type" : "VEC3"
        },
        {
            "bufferView" : 2,
            "componentType" : 5126,
            "count" : 792,
            "type" : "VEC2"
        },
        {
            "bufferView" : 3,
            "componentType" : 5123,
            "count" : 1188,
            "type" : "SCALAR"
        },
        {
            "bufferView" : 4,
            "componentType" : 5126,
            "count" : 60,
            "max" : [
                3.3952436447143555,
                2.8100743293762207,
                4.356605529785156
            ],
            "min" : [
                2.63002347946167,
                1.6708383560180664,
                -8.180825233459473
            ],
            "type" : "VEC3"
        },
        {
            "bufferView" : 5,
            "componentType" : 5126,
            "count" : 60,
            "type" : "VEC3"
        },
        {
            "bufferView" : 6,
            "componentType" : 5126,
            "count" : 60,
            "type" : "VEC2"
        },
        {
            "bufferView" : 7,
            "componentType" : 5123,
            "count" : 90,
            "type" : "SCALAR"
        }
    ],
    "bufferViews" : [
        {
            "buffer" : 0,
            "byteLength" : 9504,
            "byteOffset" : 0
        },
        {
            "buffer" : 0,
            "byteLength" : 9504,
            "byteOffset" : 9504
        },
        {
            "buffer" : 0,
            "byteLength" : 6336,
            "byteOffset" : 19008
        },
        {
            "buffer" : 0,
            "byteLength" : 2376,
            "byteOffset" : 25344
        },
        {
            "buffer" : 0,
            "byteLength" : 720,
            "byteOffset" : 27720
        },
        {
            "buffer" : 0,
            "byteLength" : 720,
            "byteOffset" : 28440
        },
        {
            "buffer" : 0,
            "byteLength" : 480,
            "byteOffset" : 29160
        },
        {
            "buffer" : 0,
            "byteLength" : 180,
            "byteOffset" : 29640
        }
    ],
    "buffers" : [
        {
            "byteLength" : 29820,
            "uri" : "data:application/octet-stream;base64,"
        }
    ]
}
