{
    "asset" : {
        "generator" : "Khronos glTF Blender I/O v0.9.36",
        "version" : "2.0"
    },
    "scene" : 0,
    "scenes" : [
        {
            "name" : "Scene",
            "nodes" : [
                0
            ]
        }
    ],
    "nodes" : [
        {
            "mesh" : 0,
            "name" : "Counter"
        }
    ],
    "materials" : [
        {
            "doubleSided" : true,
            "name" : "Counter",
            "pbrMetallicRoughness" : {
                "baseColorFactor" : [
                    0.8601722717285156,
                    0.6955757141113281,
                    0.6520125865936279,
                    1
                ],
                "metallicFactor" : 0,
                "roughnessFactor" : 0.5
            }
        },
        {
            "doubleSided" : true,
            "name" : "CounterHandle",
            "pbrMetallicRoughness" : {
                "baseColorFactor" : [
                    1,
                    0.5269044041633606,
                    0.5032253265380859,
                    1
                ],
                "metallicFactor" : 0,
                "roughnessFactor" : 0.5
            }
        }
    ],
    "meshes" : [
        {
            "name" : "Cube.016",
            "primitives" : [
                {
                    "attributes" : {
                        "POSITION" : 0,
                        "NORMAL" : 1,
                        "TEXCOORD_0" : 2
                    },
                    "indices" : 3,
                    "material" : 0
                },
                {
                    "attributes" : {
                        "POSITION" : 4,
                        "NORMAL" : 5,
                        "TEXCOORD_0" : 6
                    },
                    "indices" : 7,
                    "material" : 1
                }
            ]
        }
    ],
    "accessors" : [
        {
            "bufferView" : 0,
            "componentType" : 5126,
            "count" : 88,
            "max" : [
                3.7837936878204346,
                4.963359355926514,
                9.061126708984375
            ],
            "min" : [
                -3.1629531383514404,
                0.047943830490112305,
                -9.061125755310059
            ],
            "type" : "VEC3"
        },
        {
            "bufferView" : 1,
            "componentType" : 5126,
            "count" : 88,
            "type" : "VEC3"
        },
        {
            "bufferView" : 2,
            "componentType" : 5126,
            "count" : 88,
            "type" : "VEC2"
        },
        {
            "bufferView" : 3,
            "componentType" : 5123,
            "count" : 132,
            "type" : "SCALAR"
        },
        {
            "bufferView" : 4,
            "componentType" : 5126,
            "count" : 100,
            "max" : [
                3.4526100158691406,
                3.7361299991607666,
                6.723669528961182
            ],
            "min" : [
                3.115880012512207,
                3.399400234222412,
                -6.944524765014648
            ],
            "type" : "VEC3"
        },
        {
            "bufferView" : 5,
            "componentType" : 5126,
            "count" : 100,
            "type" : "VEC3"
        },
        {
            "bufferView" : 6,
            "componentType" : 5126,
            "count" : 100,
            "type" : "VEC2"
        },
        {
            "bufferView" : 7,
            "componentType" : 5123,
            "count" : 150,
            "type" : "SCALAR"
        }
    ],
    "bufferViews" : [
        {
            "buffer" : 0,
            "byteLength" : 1056,
            "byteOffset" : 0
        },
        {
            "buffer" : 0,
            "byteLength" : 1056,
            "byteOffset" : 1056
        },
        {
            "buffer" : 0,
            "byteLength" : 704,
            "byteOffset" : 2112
        },
        {
            "buffer" : 0,
            "byteLength" : 264,
            "byteOffset" : 2816
        },
        {
            "buffer" : 0,
            "byteLength" : 1200,
            "byteOffset" : 3080
        },
        {
            "buffer" : 0,
            "byteLength" : 1200,
            "byteOffset" : 4280
        },
        {
            "buffer" : 0,
            "byteLength" : 800,
            "byteOffset" : 5480
        },
        {
            "buffer" : 0,
            "byteLength" : 300,
            "byteOffset" : 6280
        }
    ],
    "buffers" : [
        {
            "byteLength" : 6580,
            "uri" : "data:application/octet-stream;base64,"
        }
    ]
}
