# Blender v2.80 (sub 75) OBJ File: 'borgor.blend'
# www.blender.org
mtllib Cucumba.mtl
o Cucumber_Sphere.002
v 0.059502 0.009507 -0.183128
v 0.113179 0.009507 -0.155778
v 0.155778 0.009507 -0.113179
v 0.183128 0.009507 -0.059502
v 0.192552 0.009507 0.000000
v 0.183128 0.009507 0.059502
v 0.155778 0.009507 0.113179
v 0.113179 0.009507 0.155778
v 0.059502 0.009507 0.183128
v 0.000000 0.009507 0.192552
v -0.059502 0.009507 0.183128
v -0.113179 0.009507 0.155778
v -0.155778 0.009507 0.113179
v -0.183128 0.009507 0.059502
v -0.192552 0.009507 0.000000
v -0.183128 0.009507 -0.059502
v -0.155778 0.009507 -0.113179
v -0.113179 0.009507 -0.155778
v -0.059502 0.009507 -0.183128
v -0.000000 0.009507 -0.192552
v 0.059502 -0.009629 -0.183128
v 0.113179 -0.009629 -0.155778
v 0.155778 -0.009629 -0.113179
v 0.183128 -0.009629 -0.059502
v 0.192552 -0.009629 0.000000
v 0.183128 -0.009629 0.059502
v 0.155778 -0.009629 0.113179
v 0.113179 -0.009629 0.155778
v 0.059502 -0.009629 0.183128
v -0.000000 -0.009629 0.192552
v -0.059502 -0.009629 0.183128
v -0.113179 -0.009629 0.155778
v -0.155778 -0.009629 0.113179
v -0.183128 -0.009629 0.059502
v -0.192552 -0.009629 0.000000
v -0.183128 -0.009629 -0.059502
v -0.155778 -0.009629 -0.113179
v -0.113179 -0.009629 -0.155778
v -0.059502 -0.009629 -0.183128
v -0.000000 -0.009629 -0.192552
v 0.044096 0.008650 -0.135715
v 0.083876 0.008650 -0.115446
v 0.115446 0.008650 -0.083877
v 0.135715 0.008650 -0.044097
v 0.142699 0.008650 0.000000
v 0.135715 0.008650 0.044097
v 0.115446 0.008650 0.083877
v 0.083876 0.008650 0.115446
v 0.044096 0.008650 0.135715
v -0.000000 0.008650 0.142699
v -0.044097 0.008650 0.135715
v -0.083877 0.008650 0.115446
v -0.115446 0.008650 0.083877
v -0.135715 0.008650 0.044097
v -0.142699 0.008650 0.000000
v -0.135715 0.008650 -0.044097
v -0.115446 0.008650 -0.083877
v -0.083877 0.008650 -0.115446
v -0.044097 0.008650 -0.135715
v -0.000000 0.008650 -0.142699
v 0.044096 -0.008668 -0.135715
v 0.083876 -0.008668 -0.115446
v 0.115446 -0.008668 -0.083877
v 0.135715 -0.008668 -0.044096
v 0.142699 -0.008668 0.000000
v 0.135715 -0.008668 0.044097
v 0.115446 -0.008668 0.083877
v 0.083876 -0.008668 0.115446
v 0.044096 -0.008668 0.135715
v -0.000000 -0.008668 0.142699
v -0.044097 -0.008668 0.135715
v -0.083877 -0.008668 0.115446
v -0.115446 -0.008668 0.083877
v -0.135715 -0.008668 0.044097
v -0.142699 -0.008668 0.000000
v -0.135715 -0.008668 -0.044097
v -0.115446 -0.008668 -0.083877
v -0.083877 -0.008668 -0.115446
v -0.044097 -0.008668 -0.135715
v -0.000000 -0.008668 -0.142699
v 0.044096 -0.002813 -0.135715
v 0.000176 -0.000137 -0.000542
v -0.000000 -0.000137 -0.000570
v 0.083876 -0.002813 -0.115446
v 0.000335 -0.000137 -0.000461
v 0.000176 0.000131 -0.000542
v 0.000335 0.000131 -0.000461
v 0.115446 -0.002813 -0.083877
v 0.000461 -0.000137 -0.000335
v 0.000461 0.000131 -0.000335
v 0.135715 -0.002813 -0.044096
v 0.000542 -0.000137 -0.000176
v 0.000542 0.000131 -0.000176
v 0.142699 -0.002813 0.000000
v 0.000570 -0.000137 0.000000
v 0.000570 0.000131 0.000000
v 0.135715 -0.002813 0.044097
v 0.000542 -0.000137 0.000176
v 0.000542 0.000131 0.000176
v 0.115446 -0.002813 0.083877
v 0.000461 -0.000137 0.000335
v 0.000461 0.000131 0.000335
v 0.083876 -0.002813 0.115446
v 0.000335 -0.000137 0.000461
v 0.000335 0.000131 0.000461
v 0.044096 -0.002813 0.135715
v 0.000176 -0.000137 0.000542
v 0.000176 0.000131 0.000542
v -0.000000 -0.002813 0.142699
v -0.000000 -0.000137 0.000570
v -0.000000 0.000131 0.000570
v -0.044097 -0.002813 0.135715
v -0.000176 -0.000137 0.000542
v -0.000176 0.000131 0.000542
v -0.083877 -0.002813 0.115446
v -0.000335 -0.000137 0.000461
v -0.000335 0.000131 0.000461
v -0.115446 -0.002813 0.083877
v -0.000461 -0.000137 0.000335
v -0.000461 0.000131 0.000335
v -0.135715 -0.002813 0.044097
v -0.000542 -0.000137 0.000176
v -0.000542 0.000131 0.000176
v -0.142699 -0.002813 0.000000
v -0.000570 -0.000137 0.000000
v -0.000570 0.000131 0.000000
v -0.135715 -0.002813 -0.044097
v -0.000542 -0.000137 -0.000176
v -0.000542 0.000131 -0.000176
v -0.115446 -0.002813 -0.083877
v -0.000461 -0.000137 -0.000335
v -0.000461 0.000131 -0.000335
v -0.083877 -0.002813 -0.115446
v -0.000335 -0.000137 -0.000461
v -0.000335 0.000131 -0.000461
v -0.044097 -0.002813 -0.135715
v -0.000176 -0.000137 -0.000542
v -0.000176 0.000131 -0.000542
v -0.000000 0.000131 -0.000570
v -0.000000 -0.002813 -0.142699
v 0.044096 0.002801 -0.135715
v 0.083876 0.002801 -0.115446
v 0.115446 0.002801 -0.083877
v 0.135715 0.002801 -0.044097
v 0.142699 0.002801 0.000000
v 0.135715 0.002801 0.044097
v 0.115446 0.002801 0.083877
v 0.083876 0.002801 0.115446
v 0.044096 0.002801 0.135715
v -0.000000 0.002801 0.142699
v -0.044097 0.002801 0.135715
v -0.083877 0.002801 0.115446
v -0.115446 0.002801 0.083877
v -0.135715 0.002801 0.044097
v -0.142699 0.002801 0.000000
v -0.135715 0.002801 -0.044097
v -0.115446 0.002801 -0.083877
v -0.083877 0.002801 -0.115446
v -0.044097 0.002801 -0.135715
v -0.000000 0.002801 -0.142699
vt 0.627174 0.601691
vt 0.673579 0.568264
vt 0.676953 0.574891
vt 0.632427 0.606954
vt 0.785306 0.063058
vt 0.839682 0.080958
vt 0.836299 0.087598
vt 0.784140 0.070415
vt 0.593363 0.647790
vt 0.599980 0.651180
vt 0.885886 0.114798
vt 0.880612 0.120069
vt 0.575406 0.702039
vt 0.582745 0.703233
vt 0.919376 0.161294
vt 0.912726 0.164673
vt 0.574953 0.759165
vt 0.582309 0.758052
vt 0.936823 0.215917
vt 0.929447 0.217062
vt 0.591965 0.813827
vt 0.598619 0.810436
vt 0.936407 0.273296
vt 0.929043 0.272081
vt 0.625602 0.860137
vt 0.630841 0.854855
vt 0.918102 0.327616
vt 0.911489 0.324209
vt 0.088660 0.440474
vt 0.069377 0.459177
vt 0.022449 0.389465
vt 0.046140 0.378808
vt 0.147853 0.484596
vt 0.136821 0.506373
vt 0.216941 0.506508
vt 0.212785 0.531332
vt 0.290611 0.505765
vt 0.294513 0.531057
vt 0.361110 0.481704
vt 0.372858 0.504712
vt 0.421030 0.436467
vt 0.439477 0.454785
vt 0.464245 0.374498
vt 0.487534 0.386292
vt 0.486580 0.301906
vt 0.512373 0.306160
vt 0.486555 0.225859
vt 0.512373 0.222382
vt 0.464616 0.153713
vt 0.488041 0.142735
vt 0.421847 0.092488
vt 0.440566 0.074853
vt 0.362366 0.048187
vt 0.374473 0.025652
vt 0.292269 0.025256
vt 0.296540 0.000150
vt 0.218895 0.025954
vt 0.214872 0.000851
vt 0.149659 0.050378
vt 0.137731 0.027829
vt 0.091418 0.096177
vt 0.072877 0.078270
vt 0.048681 0.158220
vt 0.025461 0.146545
vt 0.026374 0.230732
vt 0.000673 0.226407
vt 0.025906 0.306798
vt 0.000150 0.309874
vt 0.794591 0.000150
vt 0.867961 0.023963
vt 0.930427 0.069296
vt 0.975882 0.131763
vt 0.999850 0.205346
vt 0.999850 0.282994
vt 0.975382 0.357286
vt 0.928847 0.420065
vt 0.884322 0.373864
vt 0.865457 0.464895
vt 0.837720 0.407320
vt 0.791516 0.487797
vt 0.783055 0.424610
vt 0.714281 0.486684
vt 0.725772 0.424113
vt 0.641352 0.461795
vt 0.671493 0.405976
vt 0.579909 0.415805
vt 0.625446 0.372092
vt 0.535869 0.353763
vt 0.591886 0.325762
vt 0.512672 0.281289
vt 0.574922 0.271107
vt 0.512770 0.204619
vt 0.575400 0.213999
vt 0.536576 0.131506
vt 0.593372 0.159771
vt 0.581849 0.069239
vt 0.627192 0.113691
vt 0.644184 0.023970
vt 0.673602 0.080282
vt 0.717487 0.000157
vt 0.728080 0.062831
vt 0.641725 0.950099
vt 0.671755 0.893920
vt 0.726001 0.911832
vt 0.715271 0.974906
vt 0.580050 0.904025
vt 0.535913 0.841910
vt 0.512672 0.769379
vt 0.512756 0.692675
vt 0.536547 0.619538
vt 0.581812 0.557247
vt 0.644144 0.511955
vt 0.717448 0.488121
vt 0.728057 0.550795
vt 0.794560 0.488097
vt 0.785285 0.551009
vt 0.867933 0.511906
vt 0.839662 0.568900
vt 0.930397 0.557234
vt 0.885866 0.602732
vt 0.975844 0.619691
vt 0.919357 0.649216
vt 0.999803 0.693250
vt 0.936806 0.703823
vt 0.999803 0.770856
vt 0.936404 0.761182
vt 0.975368 0.845090
vt 0.918137 0.815485
vt 0.928931 0.907784
vt 0.884433 0.861746
vt 0.865807 0.952535
vt 0.837953 0.895315
vt 0.792532 0.975549
vt 0.783317 0.912898
vt 0.675122 0.887289
vt 0.879039 0.368602
vt 0.727227 0.904508
vt 0.834341 0.400671
vt 0.781910 0.417243
vt 0.726962 0.416757
vt 0.674886 0.399348
vt 0.630699 0.366817
vt 0.598549 0.322376
vt 0.729221 0.558143
vt 0.784121 0.558360
vt 0.836284 0.575534
vt 0.880599 0.607997
vt 0.912715 0.652592
vt 0.929441 0.704968
vt 0.729243 0.070185
vt 0.929051 0.759971
vt 0.676977 0.086917
vt 0.911530 0.812090
vt 0.632447 0.118960
vt 0.879146 0.856504
vt 0.599994 0.163166
vt 0.834548 0.888686
vt 0.582745 0.215198
vt 0.782185 0.905505
vt 0.582285 0.269998
vt 0.753657 0.741332
vt 0.756769 0.741530
vt 0.759793 0.740753
vt 0.762427 0.739074
vt 0.764403 0.736658
vt 0.765529 0.733747
vt 0.765697 0.730634
vt 0.764896 0.727625
vt 0.763207 0.725014
vt 0.760797 0.723054
vt 0.757903 0.721936
vt 0.754809 0.721765
vt 0.751818 0.722558
vt 0.749221 0.724234
vt 0.747269 0.726625
vt 0.746148 0.729500
vt 0.745961 0.732583
vt 0.746729 0.735583
vt 0.748384 0.738203
vt 0.750770 0.740186
vt 0.754761 0.233806
vt 0.757853 0.233976
vt 0.751771 0.234598
vt 0.749176 0.236272
vt 0.747225 0.238662
vt 0.746103 0.241534
vt 0.745916 0.244614
vt 0.746681 0.247611
vt 0.748331 0.250232
vt 0.750714 0.252219
vt 0.753603 0.253374
vt 0.756714 0.253577
vt 0.759740 0.252803
vt 0.762377 0.251123
vt 0.764354 0.248705
vt 0.765480 0.245794
vt 0.765647 0.242678
vt 0.764845 0.239667
vt 0.763156 0.237055
vt 0.760746 0.235095
vn 0.7071 0.0000 -0.7071
vn -0.1564 0.0000 0.9877
vn 0.8910 0.0000 -0.4540
vn -0.4540 0.0000 0.8910
vn 0.9877 0.0000 -0.1564
vn -0.7071 0.0000 0.7071
vn 0.9877 0.0000 0.1564
vn -0.8910 0.0000 0.4540
vn 0.8910 0.0000 0.4540
vn -0.9877 0.0000 0.1564
vn 0.7071 0.0000 0.7071
vn -0.9877 0.0000 -0.1564
vn -0.1564 -0.0000 -0.9877
vn -0.4540 -0.0000 -0.8910
vn -0.7071 -0.0000 -0.7071
vn -0.8910 -0.0000 -0.4540
vn 0.1564 -0.0000 0.9877
vn 0.4540 -0.0000 0.8910
vn 0.4540 -0.0000 -0.8910
vn 0.1564 -0.0000 -0.9877
vn -0.0031 -0.9998 0.0193
vn -0.0089 -0.9998 0.0174
vn -0.0138 -0.9998 0.0138
vn -0.0174 -0.9998 0.0089
vn -0.0193 -0.9998 0.0031
vn -0.0193 -0.9998 -0.0031
vn -0.0174 -0.9998 -0.0089
vn -0.0138 -0.9998 -0.0138
vn -0.0089 -0.9998 -0.0174
vn -0.0031 -0.9998 -0.0193
vn 0.0031 -0.9998 -0.0193
vn 0.0089 -0.9998 -0.0174
vn 0.0138 -0.9998 -0.0138
vn 0.0174 -0.9998 -0.0089
vn 0.0193 -0.9998 -0.0031
vn 0.0193 -0.9998 0.0031
vn 0.0174 -0.9998 0.0089
vn 0.0138 -0.9998 0.0138
vn 0.0089 -0.9998 0.0174
vn 0.0031 -0.9998 0.0193
vn 0.0027 0.9998 0.0172
vn 0.0079 0.9998 0.0155
vn 0.0123 0.9998 0.0123
vn 0.0155 0.9998 0.0079
vn 0.0172 0.9998 0.0027
vn 0.0172 0.9998 -0.0027
vn 0.0155 0.9998 -0.0079
vn 0.0123 0.9998 -0.0123
vn 0.0079 0.9998 -0.0155
vn 0.0027 0.9998 -0.0172
vn -0.0027 0.9998 -0.0172
vn -0.0079 0.9998 -0.0155
vn -0.0123 0.9998 -0.0123
vn -0.0155 0.9998 -0.0079
vn -0.0172 0.9998 -0.0027
vn -0.0172 0.9998 0.0027
vn -0.0155 0.9998 0.0079
vn -0.0123 0.9998 0.0123
vn -0.0079 0.9998 0.0155
vn -0.0027 0.9998 0.0172
vn -0.0030 0.9998 0.0188
vn -0.0086 0.9998 0.0169
vn -0.0134 0.9998 0.0134
vn -0.0169 0.9998 0.0086
vn -0.0188 0.9998 0.0030
vn -0.0188 0.9998 -0.0030
vn -0.0169 0.9998 -0.0086
vn -0.0134 0.9998 -0.0134
vn -0.0086 0.9998 -0.0169
vn -0.0030 0.9998 -0.0188
vn 0.0030 0.9998 -0.0188
vn 0.0086 0.9998 -0.0169
vn 0.0134 0.9998 -0.0134
vn 0.0169 0.9998 -0.0086
vn 0.0188 0.9998 -0.0030
vn 0.0188 0.9998 0.0030
vn 0.0169 0.9998 0.0086
vn 0.0134 0.9998 0.0134
vn 0.0086 0.9998 0.0169
vn 0.0030 0.9998 0.0188
vn 0.0030 -0.9998 0.0188
vn 0.0087 -0.9998 0.0170
vn 0.0135 -0.9998 0.0135
vn 0.0170 -0.9998 0.0087
vn 0.0188 -0.9998 0.0030
vn 0.0188 -0.9998 -0.0030
vn 0.0170 -0.9998 -0.0087
vn 0.0135 -0.9998 -0.0135
vn 0.0087 -0.9998 -0.0170
vn 0.0030 -0.9998 -0.0188
vn -0.0030 -0.9998 -0.0188
vn -0.0087 -0.9998 -0.0170
vn -0.0135 -0.9998 -0.0135
vn -0.0170 -0.9998 -0.0087
vn -0.0188 -0.9998 -0.0030
vn -0.0188 -0.9998 0.0030
vn -0.0170 -0.9998 0.0087
vn -0.0135 -0.9998 0.0135
vn -0.0087 -0.9998 0.0170
vn -0.0030 -0.9998 0.0188
usemtl Cucumber
s off
f 53/1/1 52/2/1 152/3/1 153/4/1
f 80/5/2 61/6/2 81/7/2 140/8/2
f 54/9/3 53/1/3 153/4/3 154/10/3
f 61/6/4 62/11/4 84/12/4 81/7/4
f 55/13/5 54/9/5 154/10/5 155/14/5
f 62/11/6 63/15/6 88/16/6 84/12/6
f 56/17/7 55/13/7 155/14/7 156/18/7
f 63/15/8 64/19/8 91/20/8 88/16/8
f 57/21/9 56/17/9 156/18/9 157/22/9
f 64/19/10 65/23/10 94/24/10 91/20/10
f 58/25/11 57/21/11 157/22/11 158/26/11
f 65/23/12 66/27/12 97/28/12 94/24/12
f 39/29/13 19/30/13 20/31/13 40/32/13
f 38/33/14 18/34/14 19/30/14 39/29/14
f 37/35/15 17/36/15 18/34/15 38/33/15
f 36/37/16 16/38/16 17/36/16 37/35/16
f 35/39/12 15/40/12 16/38/12 36/37/12
f 34/41/10 14/42/10 15/40/10 35/39/10
f 33/43/8 13/44/8 14/42/8 34/41/8
f 32/45/6 12/46/6 13/44/6 33/43/6
f 31/47/4 11/48/4 12/46/4 32/45/4
f 30/49/2 10/50/2 11/48/2 31/47/2
f 29/51/17 9/52/17 10/50/17 30/49/17
f 28/53/18 8/54/18 9/52/18 29/51/18
f 27/55/11 7/56/11 8/54/11 28/53/11
f 26/57/9 6/58/9 7/56/9 27/55/9
f 25/59/7 5/60/7 6/58/7 26/57/7
f 24/61/5 4/62/5 5/60/5 25/59/5
f 23/63/3 3/64/3 4/62/3 24/61/3
f 22/65/1 2/66/1 3/64/1 23/63/1
f 21/67/19 1/68/19 2/66/19 22/65/19
f 40/32/20 20/31/20 1/68/20 21/67/20
f 80/5/21 40/69/21 21/70/21 61/6/21
f 61/6/22 21/70/22 22/71/22 62/11/22
f 62/11/23 22/71/23 23/72/23 63/15/23
f 63/15/24 23/72/24 24/73/24 64/19/24
f 64/19/25 24/73/25 25/74/25 65/23/25
f 65/23/26 25/74/26 26/75/26 66/27/26
f 66/27/27 26/75/27 27/76/27 67/77/27
f 67/77/28 27/76/28 28/78/28 68/79/28
f 68/79/29 28/78/29 29/80/29 69/81/29
f 69/81/30 29/80/30 30/82/30 70/83/30
f 70/83/31 30/82/31 31/84/31 71/85/31
f 71/85/32 31/84/32 32/86/32 72/87/32
f 72/87/33 32/86/33 33/88/33 73/89/33
f 73/89/34 33/88/34 34/90/34 74/91/34
f 74/91/35 34/90/35 35/92/35 75/93/35
f 75/93/36 35/92/36 36/94/36 76/95/36
f 76/95/37 36/94/37 37/96/37 77/97/37
f 77/97/38 37/96/38 38/98/38 78/99/38
f 78/99/39 38/98/39 39/100/39 79/101/39
f 79/101/40 39/100/40 40/69/40 80/5/40
f 19/102/41 59/103/41 60/104/41 20/105/41
f 18/106/42 58/25/42 59/103/42 19/102/42
f 17/107/43 57/21/43 58/25/43 18/106/43
f 16/108/44 56/17/44 57/21/44 17/107/44
f 15/109/45 55/13/45 56/17/45 16/108/45
f 14/110/46 54/9/46 55/13/46 15/109/46
f 13/111/47 53/1/47 54/9/47 14/110/47
f 12/112/48 52/2/48 53/1/48 13/111/48
f 11/113/49 51/114/49 52/2/49 12/112/49
f 10/115/50 50/116/50 51/114/50 11/113/50
f 9/117/51 49/118/51 50/116/51 10/115/51
f 8/119/52 48/120/52 49/118/52 9/117/52
f 7/121/53 47/122/53 48/120/53 8/119/53
f 6/123/54 46/124/54 47/122/54 7/121/54
f 5/125/55 45/126/55 46/124/55 6/123/55
f 4/127/56 44/128/56 45/126/56 5/125/56
f 3/129/57 43/130/57 44/128/57 4/127/57
f 2/131/58 42/132/58 43/130/58 3/129/58
f 1/133/59 41/134/59 42/132/59 2/131/59
f 20/105/60 60/104/60 41/134/60 1/133/60
f 59/103/18 58/25/18 158/26/18 159/135/18
f 66/27/16 67/77/16 100/136/16 97/28/16
f 60/104/17 59/103/17 159/135/17 160/137/17
f 67/77/15 68/79/15 103/138/15 100/136/15
f 68/79/14 69/81/14 106/139/14 103/138/14
f 69/81/13 70/83/13 109/140/13 106/139/13
f 70/83/20 71/85/20 112/141/20 109/140/20
f 71/85/19 72/87/19 115/142/19 112/141/19
f 72/87/1 73/89/1 118/143/1 115/142/1
f 52/2/19 51/114/19 151/144/19 152/3/19
f 51/114/20 50/116/20 150/145/20 151/144/20
f 50/116/13 49/118/13 149/146/13 150/145/13
f 49/118/14 48/120/14 148/147/14 149/146/14
f 48/120/15 47/122/15 147/148/15 148/147/15
f 47/122/16 46/124/16 146/149/16 147/148/16
f 79/101/17 80/5/17 140/8/17 136/150/17
f 46/124/12 45/126/12 145/151/12 146/149/12
f 78/99/18 79/101/18 136/150/18 133/152/18
f 45/126/10 44/128/10 144/153/10 145/151/10
f 77/97/11 78/99/11 133/152/11 130/154/11
f 44/128/8 43/130/8 143/155/8 144/153/8
f 76/95/9 77/97/9 130/154/9 127/156/9
f 43/130/6 42/132/6 142/157/6 143/155/6
f 75/93/7 76/95/7 127/156/7 124/158/7
f 42/132/4 41/134/4 141/159/4 142/157/4
f 74/91/5 75/93/5 124/158/5 121/160/5
f 41/134/2 60/104/2 160/137/2 141/159/2
f 73/89/3 74/91/3 121/160/3 118/143/3
usemtl CucumberLight
f 160/137/61 139/161/61 86/162/61 141/159/61
f 141/159/62 86/162/62 87/163/62 142/157/62
f 142/157/63 87/163/63 90/164/63 143/155/63
f 143/155/64 90/164/64 93/165/64 144/153/64
f 144/153/65 93/165/65 96/166/65 145/151/65
f 145/151/66 96/166/66 99/167/66 146/149/66
f 146/149/67 99/167/67 102/168/67 147/148/67
f 147/148/68 102/168/68 105/169/68 148/147/68
f 148/147/69 105/169/69 108/170/69 149/146/69
f 149/146/70 108/170/70 111/171/70 150/145/70
f 150/145/71 111/171/71 114/172/71 151/144/71
f 151/144/72 114/172/72 117/173/72 152/3/72
f 152/3/73 117/173/73 120/174/73 153/4/73
f 153/4/74 120/174/74 123/175/74 154/10/74
f 154/10/75 123/175/75 126/176/75 155/14/75
f 155/14/76 126/176/76 129/177/76 156/18/76
f 156/18/77 129/177/77 132/178/77 157/22/77
f 157/22/78 132/178/78 135/179/78 158/26/78
f 158/26/79 135/179/79 138/180/79 159/135/79
f 159/135/80 138/180/80 139/161/80 160/137/80
f 137/181/81 136/150/81 140/8/81 83/182/81
f 134/183/82 133/152/82 136/150/82 137/181/82
f 131/184/83 130/154/83 133/152/83 134/183/83
f 128/185/84 127/156/84 130/154/84 131/184/84
f 125/186/85 124/158/85 127/156/85 128/185/85
f 122/187/86 121/160/86 124/158/86 125/186/86
f 119/188/87 118/143/87 121/160/87 122/187/87
f 116/189/88 115/142/88 118/143/88 119/188/88
f 113/190/89 112/141/89 115/142/89 116/189/89
f 110/191/90 109/140/90 112/141/90 113/190/90
f 107/192/91 106/139/91 109/140/91 110/191/91
f 104/193/92 103/138/92 106/139/92 107/192/92
f 101/194/93 100/136/93 103/138/93 104/193/93
f 98/195/94 97/28/94 100/136/94 101/194/94
f 95/196/95 94/24/95 97/28/95 98/195/95
f 92/197/96 91/20/96 94/24/96 95/196/96
f 89/198/97 88/16/97 91/20/97 92/197/97
f 85/199/98 84/12/98 88/16/98 89/198/98
f 82/200/99 81/7/99 84/12/99 85/199/99
f 83/182/100 140/8/100 81/7/100 82/200/100
