# Blender v2.80 (sub 75) OBJ File: 'borgor.blend'
# www.blender.org
mtllib Egg.mtl
o Egg_Sphere.005
v 0.000000 0.152947 -0.292457
v 0.000000 0.108160 -0.307507
v 0.106241 0.225414 -0.146228
v 0.146229 0.193350 -0.201266
v 0.171902 0.152947 -0.236602
v 0.180748 0.108160 -0.248779
v 0.171902 0.225414 -0.055854
v 0.236603 0.193350 -0.076877
v 0.278143 0.152947 -0.090374
v 0.292457 0.108160 -0.095025
v 0.171902 0.225414 0.055855
v 0.236603 0.193350 0.076877
v 0.278143 0.152947 0.090374
v 0.292457 0.108160 0.095025
v 0.106241 0.225414 0.146229
v 0.146229 0.193350 0.201267
v 0.171902 0.152947 0.236603
v 0.180748 0.108160 0.248779
v 0.000000 0.225414 0.180749
v 0.000000 0.193350 0.248779
v -0.000000 0.152947 0.292457
v -0.000000 0.108160 0.307508
v -0.106241 0.225414 0.146229
v -0.146229 0.193350 0.201267
v -0.171902 0.152947 0.236603
v -0.180748 0.108160 0.248779
v -0.000000 0.253094 0.000000
v -0.171902 0.225414 0.055855
v -0.236603 0.193350 0.076877
v -0.278143 0.152947 0.090374
v -0.292457 0.108160 0.095025
v -0.171902 0.225414 -0.055854
v -0.236603 0.193350 -0.076877
v -0.278143 0.152947 -0.090374
v -0.292457 0.108160 -0.095025
v -0.106241 0.225414 -0.146228
v -0.146229 0.193350 -0.201266
v -0.171902 0.152947 -0.236603
v -0.180748 0.108160 -0.248779
v -0.000000 0.225414 -0.180748
v -0.000000 0.193350 -0.248779
v 0.008878 0.078299 -0.697378
v 0.014056 0.030424 -0.813042
v 0.013136 0.013911 -0.799544
v 0.005279 -0.031656 -0.610753
v 0.332895 0.115629 -0.254238
v 0.511124 0.078165 -0.499549
v 0.575189 0.030258 -0.587727
v 0.567953 0.013751 -0.577767
v 0.462932 -0.031767 -0.433218
v 0.556102 0.115689 0.027185
v 0.856276 0.078299 -0.081707
v 0.965114 0.030424 -0.122059
v 0.952484 0.013911 -0.117068
v 0.774701 -0.031656 -0.051736
v 0.617543 0.116071 0.311313
v 0.956029 0.078920 0.340472
v 1.087172 0.031184 0.338750
v 1.073261 0.014663 0.337782
v 0.869191 -0.031068 0.326549
v 0.483944 0.116569 0.502250
v 0.732689 0.079544 0.656728
v 0.825943 0.031819 0.707307
v 0.816912 0.015301 0.699658
v 0.673987 -0.030453 0.603935
v 0.185920 0.116864 0.553363
v 0.271106 0.079931 0.746855
v 0.300119 0.032205 0.818475
v 0.298157 0.015685 0.808691
v 0.257258 -0.030087 0.682703
v -0.144686 0.116957 0.421931
v -0.237350 0.080026 0.557024
v -0.273664 0.032292 0.609455
v -0.268338 0.015773 0.601956
v -0.203253 -0.029994 0.508849
v 0.040682 0.136114 0.152660
v -0.373098 0.116864 0.147212
v -0.576293 0.079931 0.131184
v -0.650938 0.032205 0.127491
v -0.641191 0.015685 0.126214
v -0.512164 -0.030087 0.123685
v -0.420566 0.116569 -0.154914
v -0.638430 0.079544 -0.339449
v -0.712900 0.031819 -0.410729
v -0.702986 0.015301 -0.404612
v -0.570964 -0.030453 -0.300574
v -0.286967 0.116071 -0.345852
v -0.415091 0.078920 -0.655705
v -0.451672 0.031184 -0.779285
v -0.446637 0.014663 -0.766489
v -0.375759 -0.031068 -0.577960
v 0.068986 -0.074758 0.116203
v -0.002916 0.115689 -0.378966
vt 0.089930 0.104910
vt 0.007586 0.302695
vt 0.000116 0.301663
vt 0.083129 0.100801
vt 0.999884 0.290286
vt 0.938021 0.300060
vt 0.870817 0.148925
vt 0.919277 0.103937
vt 0.320275 0.346215
vt 0.229307 0.522322
vt 0.172007 0.443531
vt 0.153904 0.322933
vt 0.050002 0.308643
vt 0.123267 0.136326
vt 0.203239 0.212020
vt 0.921001 0.465160
vt 0.714167 0.336995
vt 0.074196 0.496078
vt 0.033319 0.517867
vt 0.025554 0.519908
vt 0.981018 0.493164
vt 0.305401 0.531648
vt 0.163627 0.613826
vt 0.852309 0.576943
vt 0.133799 0.650721
vt 0.130455 0.657894
vt 0.898799 0.630632
vt 0.383803 0.471214
vt 0.426511 0.363090
vt 0.288551 0.626183
vt 0.282062 0.664717
vt 0.285237 0.671027
vt 0.740167 0.595099
vt 0.750063 0.654340
vt 0.413535 0.247094
vt 0.412270 0.535455
vt 0.428166 0.562550
vt 0.433891 0.566025
vt 0.623995 0.514588
vt 0.601252 0.555866
vt 0.480719 0.371739
vt 0.516542 0.372528
vt 0.557103 0.365413
vt 0.353844 0.166828
vt 0.507994 0.375826
vt 0.514308 0.376630
vt 0.574565 0.202391
vt 0.457350 0.195332
vt 0.278579 0.153383
vt 0.540377 0.171555
vt 0.479696 0.174259
vt 0.486094 0.172377
vt 0.365338 0.035679
vt 0.370113 0.030558
vt 0.659805 0.087978
vt 0.361677 0.073647
vt 0.651043 0.029888
vt 0.219508 0.007863
vt 0.218479 0.000116
vt 0.771422 0.067179
vt 0.799155 0.002870
vt 0.238789 0.050155
vt 0.521597 0.775824
vt 0.459129 0.713728
vt 0.507568 0.688881
vt 0.432709 0.687265
vt 0.501758 0.652001
vt 0.496885 0.621024
vt 0.592666 0.636122
vt 0.578357 0.663939
vt 0.410554 0.665179
vt 0.391202 0.645700
vt 0.492694 0.593863
vt 0.434582 0.762320
vt 0.397712 0.756488
vt 0.366762 0.751603
vt 0.339655 0.747237
vt 0.443291 0.816007
vt 0.409979 0.833015
vt 0.382160 0.847263
vt 0.357689 0.859652
vt 0.481826 0.854392
vt 0.464955 0.887661
vt 0.450742 0.915528
vt 0.438227 0.939904
vt 0.535631 0.862767
vt 0.541478 0.899655
vt 0.546277 0.930511
vt 0.550455 0.957589
vt 0.584035 0.837903
vt 0.610431 0.864324
vt 0.632463 0.886497
vt 0.651774 0.905980
vt 0.608609 0.789363
vt 0.645499 0.795274
vt 0.599962 0.735620
vt 0.676369 0.800160
vt 0.703438 0.804572
vt 0.633279 0.718680
vt 0.561359 0.697234
vt 0.661176 0.704591
vt 0.685670 0.692257
vt 0.605252 0.611720
vn 0.2972 -0.6007 -0.7422
vn 0.0918 -0.9680 -0.2334
vn 0.0373 0.9993 -0.0094
vn 0.0451 0.9922 -0.1165
vn 0.0331 0.9991 -0.0265
vn 0.0511 -0.9978 -0.0415
vn 0.3125 0.9135 -0.2603
vn 0.6133 -0.6010 -0.5125
vn 0.1934 -0.9681 -0.1596
vn 0.0297 0.9994 0.0182
vn 0.0968 0.9922 -0.0789
vn 0.1125 0.9933 -0.0271
vn 0.0579 -0.9982 -0.0129
vn 0.3548 0.9305 -0.0906
vn 0.7521 -0.6284 -0.1984
vn 0.2246 -0.9728 -0.0565
vn 0.0087 0.9990 0.0448
vn -0.0219 0.9982 0.0559
vn 0.1033 0.9922 0.0705
vn 0.3364 0.9116 0.2363
vn 0.6626 -0.5828 0.4705
vn 0.0455 -0.9984 0.0342
vn 0.2088 -0.9665 0.1494
vn -0.0469 0.9981 0.0387
vn 0.0337 0.9837 0.1767
vn 0.1108 0.8340 0.5405
vn 0.1777 -0.5048 0.8447
vn 0.0132 -0.9972 0.0743
vn 0.0662 -0.9405 0.3334
vn -0.0828 0.9727 0.2168
vn -0.1369 -0.9193 0.3690
vn -0.0466 0.9989 0.0063
vn -0.2163 0.7799 0.5874
vn -0.3032 -0.4657 0.8314
vn -0.0341 -0.9954 0.0898
vn -0.0757 -0.9953 0.0610
vn -0.1831 0.9719 0.1480
vn -0.0277 0.9994 -0.0220
vn -0.3113 -0.9178 0.2467
vn -0.4956 0.7756 0.3909
vn -0.6976 -0.4634 0.5465
vn -0.8614 -0.4980 0.1001
vn -0.0765 -0.9970 0.0115
vn -0.1846 0.9825 0.0253
vn -0.0031 0.9993 -0.0381
vn -0.3459 -0.9372 0.0444
vn -0.5621 0.8243 0.0685
vn -0.6689 -0.5734 -0.4730
vn -0.0484 -0.9983 -0.0318
vn -0.0066 -0.9983 -0.0586
vn -0.2168 -0.9644 -0.1512
vn -0.1044 0.9916 -0.0757
vn 0.0149 0.9991 -0.0396
vn -0.3459 0.9053 -0.2464
vn -0.0572 -0.6261 -0.7776
vn 0.1507 0.9134 -0.3780
vn -0.0197 -0.9725 -0.2320
vn -0.0108 0.9932 -0.1158
vn -0.0297 0.9295 -0.3676
vn 0.0235 -0.9978 -0.0612
vn 0.1286 0.9873 -0.0934
vn 0.3592 0.8960 -0.2610
vn 0.2155 0.7169 -0.6631
vn 0.5641 0.7169 -0.4098
vn 0.7706 0.3044 -0.5599
vn 0.1590 0.9873 0.0000
vn 0.4440 0.8960 0.0000
vn 0.6972 0.7169 -0.0000
vn 0.9525 0.3044 0.0000
vn 0.1286 0.9873 0.0934
vn 0.3592 0.8960 0.2610
vn 0.5641 0.7169 0.4098
vn 0.7706 0.3044 0.5599
vn 0.0491 0.9873 0.1512
vn 0.1372 0.8960 0.4223
vn 0.2155 0.7169 0.6631
vn 0.2943 0.3044 0.9059
vn -0.0491 0.9873 0.1512
vn -0.1372 0.8960 0.4223
vn -0.2155 0.7169 0.6631
vn -0.2943 0.3044 0.9059
vn -0.1286 0.9873 0.0934
vn -0.3592 0.8960 0.2610
vn -0.5641 0.7169 0.4098
vn -0.7706 0.3044 0.5599
vn -0.1590 0.9873 0.0000
vn -0.4440 0.8960 0.0000
vn -0.1286 0.9873 -0.0934
vn -0.6972 0.7169 0.0000
vn -0.9525 0.3044 0.0000
vn -0.3592 0.8960 -0.2610
vn -0.0491 0.9873 -0.1512
vn -0.5641 0.7169 -0.4098
vn -0.7706 0.3044 -0.5599
vn -0.1372 0.8960 -0.4223
vn -0.2155 0.7169 -0.6631
vn -0.2943 0.3044 -0.9059
vn 0.1372 0.8960 -0.4223
vn 0.0491 0.9873 -0.1512
vn 0.2943 0.3044 -0.9059
usemtl EggWhite
s off
f 43/1/1 48/2/1 49/3/1 44/4/1
f 49/5/2 50/6/2 45/7/2 44/8/2
f 76/9/3 56/10/3 51/11/3
f 46/12/4 47/13/4 42/14/4 93/15/4
f 76/9/5 51/11/5 46/12/5
f 55/16/6 92/17/6 50/6/6
f 52/18/7 53/19/7 48/2/7 47/13/7
f 48/2/8 53/19/8 54/20/8 49/3/8
f 54/21/9 55/16/9 50/6/9 49/5/9
f 76/9/10 61/22/10 56/10/10
f 51/11/11 52/18/11 47/13/11 46/12/11
f 56/10/12 57/23/12 52/18/12 51/11/12
f 60/24/13 92/17/13 55/16/13
f 57/23/14 58/25/14 53/19/14 52/18/14
f 53/19/15 58/25/15 59/26/15 54/20/15
f 59/27/16 60/24/16 55/16/16 54/21/16
f 76/9/17 66/28/17 61/22/17
f 76/9/18 71/29/18 66/28/18
f 61/22/19 62/30/19 57/23/19 56/10/19
f 62/30/20 63/31/20 58/25/20 57/23/20
f 58/25/21 63/31/21 64/32/21 59/26/21
f 65/33/22 92/17/22 60/24/22
f 64/34/23 65/33/23 60/24/23 59/27/23
f 76/9/24 77/35/24 71/29/24
f 66/28/25 67/36/25 62/30/25 61/22/25
f 67/36/26 68/37/26 63/31/26 62/30/26
f 63/31/27 68/37/27 69/38/27 64/32/27
f 70/39/28 92/17/28 65/33/28
f 69/40/29 70/39/29 65/33/29 64/34/29
f 71/29/30 72/41/30 67/36/30 66/28/30
f 74/42/31 75/43/31 70/39/31 69/40/31
f 76/9/32 82/44/32 77/35/32
f 72/41/33 73/45/33 68/37/33 67/36/33
f 68/37/34 73/45/34 74/46/34 69/38/34
f 75/43/35 92/17/35 70/39/35
f 81/47/36 92/17/36 75/43/36
f 77/35/37 78/48/37 72/41/37 71/29/37
f 76/9/38 87/49/38 82/44/38
f 80/50/39 81/47/39 75/43/39 74/42/39
f 78/48/40 79/51/40 73/45/40 72/41/40
f 73/45/41 79/51/41 80/52/41 74/46/41
f 79/51/42 84/53/42 85/54/42 80/52/42
f 86/55/43 92/17/43 81/47/43
f 82/44/44 83/56/44 78/48/44 77/35/44
f 76/9/45 93/15/45 87/49/45
f 85/57/46 86/55/46 81/47/46 80/50/46
f 83/56/47 84/53/47 79/51/47 78/48/47
f 84/53/48 89/58/48 90/59/48 85/54/48
f 91/60/49 92/17/49 86/55/49
f 45/7/50 92/17/50 91/60/50
f 90/61/51 91/60/51 86/55/51 85/57/51
f 87/49/52 88/62/52 83/56/52 82/44/52
f 76/9/53 46/12/53 93/15/53
f 88/62/54 89/58/54 84/53/54 83/56/54
f 89/58/55 43/1/55 44/4/55 90/59/55
f 47/13/56 48/2/56 43/1/56 42/14/56
f 45/7/57 91/60/57 90/61/57 44/8/57
f 93/15/58 42/14/58 88/62/58 87/49/58
f 42/14/59 43/1/59 89/58/59 88/62/59
f 50/6/60 92/17/60 45/7/60
usemtl EggYolk
f 27/63/61 7/64/61 3/65/61
f 3/65/62 7/64/62 8/66/62 4/67/62
f 4/67/63 5/68/63 1/69/63 41/70/63
f 4/67/64 8/66/64 9/71/64 5/68/64
f 5/68/65 9/71/65 10/72/65 6/73/65
f 27/63/66 11/74/66 7/64/66
f 7/64/67 11/74/67 12/75/67 8/66/67
f 8/66/68 12/75/68 13/76/68 9/71/68
f 9/71/69 13/76/69 14/77/69 10/72/69
f 27/63/70 15/78/70 11/74/70
f 11/74/71 15/78/71 16/79/71 12/75/71
f 12/75/72 16/79/72 17/80/72 13/76/72
f 13/76/73 17/80/73 18/81/73 14/77/73
f 27/63/74 19/82/74 15/78/74
f 15/78/75 19/82/75 20/83/75 16/79/75
f 16/79/76 20/83/76 21/84/76 17/80/76
f 17/80/77 21/84/77 22/85/77 18/81/77
f 27/63/78 23/86/78 19/82/78
f 19/82/79 23/86/79 24/87/79 20/83/79
f 20/83/80 24/87/80 25/88/80 21/84/80
f 21/84/81 25/88/81 26/89/81 22/85/81
f 27/63/82 28/90/82 23/86/82
f 23/86/83 28/90/83 29/91/83 24/87/83
f 24/87/84 29/91/84 30/92/84 25/88/84
f 25/88/85 30/92/85 31/93/85 26/89/85
f 27/63/86 32/94/86 28/90/86
f 28/90/87 32/94/87 33/95/87 29/91/87
f 27/63/88 36/96/88 32/94/88
f 29/91/89 33/95/89 34/97/89 30/92/89
f 30/92/90 34/97/90 35/98/90 31/93/90
f 32/94/91 36/96/91 37/99/91 33/95/91
f 27/63/92 40/100/92 36/96/92
f 33/95/93 37/99/93 38/101/93 34/97/93
f 34/97/94 38/101/94 39/102/94 35/98/94
f 36/96/95 40/100/95 41/70/95 37/99/95
f 37/99/96 41/70/96 1/69/96 38/101/96
f 38/101/97 1/69/97 2/103/97 39/102/97
f 41/70/98 40/100/98 3/65/98 4/67/98
f 40/100/99 27/63/99 3/65/99
f 2/103/100 1/69/100 5/68/100 6/73/100
