{
    "asset" : {
        "generator" : "Khronos glTF Blender I/O v0.9.36",
        "version" : "2.0"
    },
    "scene" : 0,
    "scenes" : [
        {
            "name" : "Scene",
            "nodes" : [
                0
            ]
        }
    ],
    "nodes" : [
        {
            "mesh" : 0,
            "name" : "Fridge"
        }
    ],
    "materials" : [
        {
            "doubleSided" : true,
            "name" : "Fridge",
            "pbrMetallicRoughness" : {
                "baseColorFactor" : [
                    0.7356610894203186,
                    0.8000000715255737,
                    0.2990827262401581,
                    1
                ],
                "metallicFactor" : 0,
                "roughnessFactor" : 0.5
            }
        },
        {
            "doubleSided" : true,
            "name" : "FridgeHandle",
            "pbrMetallicRoughness" : {
                "baseColorFactor" : [
                    0.940238356590271,
                    0.5969039797782898,
                    0.11688411235809326,
                    1
                ],
                "metallicFactor" : 0,
                "roughnessFactor" : 0.5
            }
        }
    ],
    "meshes" : [
        {
            "name" : "Cube.009",
            "primitives" : [
                {
                    "attributes" : {
                        "POSITION" : 0,
                        "NORMAL" : 1,
                        "TEXCOORD_0" : 2
                    },
                    "indices" : 3,
                    "material" : 0
                },
                {
                    "attributes" : {
                        "POSITION" : 4,
                        "NORMAL" : 5,
                        "TEXCOORD_0" : 6
                    },
                    "indices" : 7,
                    "material" : 1
                }
            ]
        }
    ],
    "accessors" : [
        {
            "bufferView" : 0,
            "componentType" : 5126,
            "count" : 408,
            "max" : [
                3.0615861415863037,
                11.871108055114746,
                2.9499082565307617
            ],
            "min" : [
                -3.034776210784912,
                0.03844308853149414,
                -3.1017656326293945
            ],
            "type" : "VEC3"
        },
        {
            "bufferView" : 1,
            "componentType" : 5126,
            "count" : 408,
            "type" : "VEC3"
        },
        {
            "bufferView" : 2,
            "componentType" : 5126,
            "count" : 408,
            "type" : "VEC2"
        },
        {
            "bufferView" : 3,
            "componentType" : 5123,
            "count" : 612,
            "type" : "SCALAR"
        },
        {
            "bufferView" : 4,
            "componentType" : 5126,
            "count" : 20,
            "max" : [
                3.3952436447143555,
                6.787646293640137,
                -1.453582525253296
            ],
            "min" : [
                2.8991270065307617,
                5.83575439453125,
                -1.785625696182251
            ],
            "type" : "VEC3"
        },
        {
            "bufferView" : 5,
            "componentType" : 5126,
            "count" : 20,
            "type" : "VEC3"
        },
        {
            "bufferView" : 6,
            "componentType" : 5126,
            "count" : 20,
            "type" : "VEC2"
        },
        {
            "bufferView" : 7,
            "componentType" : 5123,
            "count" : 30,
            "type" : "SCALAR"
        }
    ],
    "bufferViews" : [
        {
            "buffer" : 0,
            "byteLength" : 4896,
            "byteOffset" : 0
        },
        {
            "buffer" : 0,
            "byteLength" : 4896,
            "byteOffset" : 4896
        },
        {
            "buffer" : 0,
            "byteLength" : 3264,
            "byteOffset" : 9792
        },
        {
            "buffer" : 0,
            "byteLength" : 1224,
            "byteOffset" : 13056
        },
        {
            "buffer" : 0,
            "byteLength" : 240,
            "byteOffset" : 14280
        },
        {
            "buffer" : 0,
            "byteLength" : 240,
            "byteOffset" : 14520
        },
        {
            "buffer" : 0,
            "byteLength" : 160,
            "byteOffset" : 14760
        },
        {
            "buffer" : 0,
            "byteLength" : 60,
            "byteOffset" : 14920
        }
    ],
    "buffers" : [
        {
            "byteLength" : 14980,
            "uri" : "data:application/octet-stream;base64,"
        }
    ]
}
