{
    "asset" : {
        "generator" : "Khronos glTF Blender I/O v0.9.36",
        "version" : "2.0"
    },
    "scene" : 0,
    "scenes" : [
        {
            "name" : "Scene",
            "nodes" : [
                0,
                1,
                2,
                3,
                4,
                5,
                6,
                7
            ]
        }
    ],
    "nodes" : [
        {
            "mesh" : 0,
            "name" : "Walls",
            "rotation" : [
                0.7071068286895752,
                0,
                0,
                0.7071067094802856
            ],
            "translation" : [
                -7.180365085601807,
                9.817594528198242,
                0.6754807233810425
            ]
        },
        {
            "mesh" : 1,
            "name" : "Cabinet02",
            "rotation" : [
                0.7071068286895752,
                0,
                0,
                0.7071067094802856
            ],
            "translation" : [
                2.534046173095703,
                13.158689498901367,
                -5.741880893707275
            ]
        },
        {
            "mesh" : 2,
            "name" : "Cabinet03",
            "rotation" : [
                0.7071068286895752,
                0,
                0,
                0.7071067094802856
            ],
            "translation" : [
                6.659514427185059,
                13.158689498901367,
                -5.741880416870117
            ]
        },
        {
            "mesh" : 3,
            "name" : "Ventilation",
            "rotation" : [
                0.7071068286895752,
                0,
                0,
                0.7071067094802856
            ],
            "translation" : [
                -1.695001244544983,
                12.604461669921875,
                -7.140398025512695
            ]
        },
        {
            "mesh" : 4,
            "name" : "Cabinet01",
            "rotation" : [
                0.7071068286895752,
                0,
                0,
                0.7071067094802856
            ],
            "translation" : [
                -6.063102722167969,
                13.158687591552734,
                -5.741881847381592
            ]
        },
        {
            "mesh" : 5,
            "name" : "Stove",
            "rotation" : [
                0.7071068286895752,
                0,
                0,
                0.7071067094802856
            ],
            "translation" : [
                -1.7684779167175293,
                6.220766544342041,
                -6.731621265411377
            ]
        },
        {
            "mesh" : 6,
            "name" : "Oven",
            "rotation" : [
                0.7071068286895752,
                0,
                0,
                0.7071067094802856
            ],
            "translation" : [
                -1.0609686374664307,
                5.325778484344482,
                -5.0012969970703125
            ]
        },
        {
            "mesh" : 7,
            "name" : "Floor",
            "rotation" : [
                0.7071068286895752,
                0,
                0,
                0.7071067094802856
            ],
            "translation" : [
                0.3080778121948242,
                0.10779593884944916,
                0.2760601341724396
            ]
        }
    ],
    "materials" : [
        {
            "doubleSided" : true,
            "name" : "Walls",
            "pbrMetallicRoughness" : {
                "baseColorFactor" : [
                    0.49377360939979553,
                    0.5980863571166992,
                    0.7223739624023438,
                    1
                ],
                "metallicFactor" : 0,
                "roughnessFactor" : 0.5
            }
        },
        {
            "doubleSided" : true,
            "name" : "Cabinet",
            "pbrMetallicRoughness" : {
                "baseColorFactor" : [
                    0.06968311220407486,
                    0.07507676631212234,
                    0.1491488218307495,
                    1
                ],
                "metallicFactor" : 0,
                "roughnessFactor" : 0.5
            }
        },
        {
            "doubleSided" : true,
            "name" : "Metall",
            "pbrMetallicRoughness" : {
                "baseColorFactor" : [
                    0.2579435706138611,
                    0.2579435706138611,
                    0.2579435706138611,
                    1
                ],
                "metallicFactor" : 0.9781818389892578,
                "roughnessFactor" : 0.072727270424366
            }
        },
        {
            "doubleSided" : true,
            "name" : "Material.001",
            "pbrMetallicRoughness" : {
                "baseColorFactor" : [
                    0,
                    0,
                    0,
                    1
                ],
                "metallicFactor" : 0.4909090995788574,
                "roughnessFactor" : 0.2963636517524719
            }
        },
        {
            "doubleSided" : true,
            "name" : "Material.002",
            "pbrMetallicRoughness" : {
                "baseColorFactor" : [
                    0.9194816946983337,
                    0.9194816946983337,
                    0.9194816946983337,
                    1
                ],
                "metallicFactor" : 0.18545454740524292,
                "roughnessFactor" : 0.9436363577842712
            }
        },
        {
            "doubleSided" : true,
            "name" : "PlasticBtn01",
            "pbrMetallicRoughness" : {
                "baseColorFactor" : [
                    0.7914736866950989,
                    0.7563420534133911,
                    0.8000000715255737,
                    1
                ],
                "metallicFactor" : 0,
                "roughnessFactor" : 1
            }
        },
        {
            "doubleSided" : true,
            "name" : "PlasticBtn02",
            "pbrMetallicRoughness" : {
                "baseColorFactor" : [
                    0.8000000715255737,
                    0.05759590491652489,
                    0.05451512336730957,
                    1
                ],
                "metallicFactor" : 0,
                "roughnessFactor" : 1
            }
        }
    ],
    "meshes" : [
        {
            "name" : "kitchen",
            "primitives" : [
                {
                    "attributes" : {
                        "POSITION" : 0,
                        "NORMAL" : 1,
                        "TEXCOORD_0" : 2
                    },
                    "indices" : 3,
                    "material" : 0
                }
            ]
        },
        {
            "name" : "kitchen.002",
            "primitives" : [
                {
                    "attributes" : {
                        "POSITION" : 4,
                        "NORMAL" : 5,
                        "TEXCOORD_0" : 6
                    },
                    "indices" : 7,
                    "material" : 1
                }
            ]
        },
        {
            "name" : "kitchen.003",
            "primitives" : [
                {
                    "attributes" : {
                        "POSITION" : 8,
                        "NORMAL" : 9,
                        "TEXCOORD_0" : 10
                    },
                    "indices" : 11,
                    "material" : 1
                }
            ]
        },
        {
            "name" : "kitchen.004",
            "primitives" : [
                {
                    "attributes" : {
                        "POSITION" : 12,
                        "NORMAL" : 13,
                        "TEXCOORD_0" : 14
                    },
                    "indices" : 15,
                    "material" : 2
                }
            ]
        },
        {
            "name" : "kitchen.005",
            "primitives" : [
                {
                    "attributes" : {
                        "POSITION" : 16,
                        "NORMAL" : 17,
                        "TEXCOORD_0" : 18
                    },
                    "indices" : 19,
                    "material" : 1
                }
            ]
        },
        {
            "name" : "kitchen.008",
            "primitives" : [
                {
                    "attributes" : {
                        "POSITION" : 20,
                        "NORMAL" : 21,
                        "TEXCOORD_0" : 22
                    },
                    "indices" : 23,
                    "material" : 3
                },
                {
                    "attributes" : {
                        "POSITION" : 24,
                        "NORMAL" : 25,
                        "TEXCOORD_0" : 26
                    },
                    "indices" : 27,
                    "material" : 4
                }
            ]
        },
        {
            "name" : "kitchen.010",
            "primitives" : [
                {
                    "attributes" : {
                        "POSITION" : 28,
                        "NORMAL" : 29,
                        "TEXCOORD_0" : 30
                    },
                    "indices" : 31,
                    "material" : 2
                },
                {
                    "attributes" : {
                        "POSITION" : 32,
                        "NORMAL" : 33,
                        "TEXCOORD_0" : 34
                    },
                    "indices" : 35,
                    "material" : 5
                },
                {
                    "attributes" : {
                        "POSITION" : 36,
                        "NORMAL" : 37,
                        "TEXCOORD_0" : 38
                    },
                    "indices" : 39,
                    "material" : 6
                }
            ]
        },
        {
            "name" : "kitchen.023",
            "primitives" : [
                {
                    "attributes" : {
                        "POSITION" : 40,
                        "NORMAL" : 41,
                        "TEXCOORD_0" : 42
                    },
                    "indices" : 23
                }
            ]
        }
    ],
    "accessors" : [
        {
            "bufferView" : 0,
            "componentType" : 5126,
            "count" : 68,
            "max" : [
                15.99459457397461,
                -5.6503729820251465,
                10.132412910461426
            ],
            "min" : [
                -1.9733538627624512,
                -9.951645851135254,
                -5.108604431152344
            ],
            "type" : "VEC3"
        },
        {
            "bufferView" : 1,
            "componentType" : 5126,
            "count" : 68,
            "type" : "VEC3"
        },
        {
            "bufferView" : 2,
            "componentType" : 5126,
            "count" : 68,
            "type" : "VEC2"
        },
        {
            "bufferView" : 3,
            "componentType" : 5123,
            "count" : 102,
            "type" : "SCALAR"
        },
        {
            "bufferView" : 4,
            "componentType" : 5126,
            "count" : 712,
            "max" : [
                2.097385883331299,
                0.45476198196411133,
                1.6826486587524414
            ],
            "min" : [
                -2.097421169281006,
                -2.6637492179870605,
                -1.6778831481933594
            ],
            "type" : "VEC3"
        },
        {
            "bufferView" : 5,
            "componentType" : 5126,
            "count" : 712,
            "type" : "VEC3"
        },
        {
            "bufferView" : 6,
            "componentType" : 5126,
            "count" : 712,
            "type" : "VEC2"
        },
        {
            "bufferView" : 7,
            "componentType" : 5123,
            "count" : 2340,
            "type" : "SCALAR"
        },
        {
            "bufferView" : 8,
            "componentType" : 5126,
            "count" : 712,
            "max" : [
                2.0975332260131836,
                0.4547615051269531,
                1.6826486587524414
            ],
            "min" : [
                -2.097273349761963,
                -2.6637496948242188,
                -1.6778831481933594
            ],
            "type" : "VEC3"
        },
        {
            "bufferView" : 9,
            "componentType" : 5126,
            "count" : 712,
            "type" : "VEC3"
        },
        {
            "bufferView" : 10,
            "componentType" : 5126,
            "count" : 712,
            "type" : "VEC2"
        },
        {
            "bufferView" : 11,
            "componentType" : 5123,
            "count" : 2340,
            "type" : "SCALAR"
        },
        {
            "bufferView" : 12,
            "componentType" : 5126,
            "count" : 266,
            "max" : [
                1.7109472751617432,
                1.533843994140625,
                1.400700569152832
            ],
            "min" : [
                -1.710947871208191,
                -1.5087556838989258,
                -2.062952995300293
            ],
            "type" : "VEC3"
        },
        {
            "bufferView" : 13,
            "componentType" : 5126,
            "count" : 266,
            "type" : "VEC3"
        },
        {
            "bufferView" : 14,
            "componentType" : 5126,
            "count" : 266,
            "type" : "VEC2"
        },
        {
            "bufferView" : 15,
            "componentType" : 5123,
            "count" : 948,
            "type" : "SCALAR"
        },
        {
            "bufferView" : 16,
            "componentType" : 5126,
            "count" : 712,
            "max" : [
                2.097771644592285,
                0.45476293563842773,
                1.6826467514038086
            ],
            "min" : [
                -2.097036361694336,
                -2.663748264312744,
                -1.6778850555419922
            ],
            "type" : "VEC3"
        },
        {
            "bufferView" : 17,
            "componentType" : 5126,
            "count" : 712,
            "type" : "VEC3"
        },
        {
            "bufferView" : 18,
            "componentType" : 5126,
            "count" : 712,
            "type" : "VEC2"
        },
        {
            "bufferView" : 19,
            "componentType" : 5123,
            "count" : 2340,
            "type" : "SCALAR"
        },
        {
            "bufferView" : 20,
            "componentType" : 5126,
            "count" : 24,
            "max" : [
                2.1621439456939697,
                1.2834720611572266,
                0.047949790954589844
            ],
            "min" : [
                -2.0892040729522705,
                -1.2980198860168457,
                -0.012757301330566406
            ],
            "type" : "VEC3"
        },
        {
            "bufferView" : 21,
            "componentType" : 5126,
            "count" : 24,
            "type" : "VEC3"
        },
        {
            "bufferView" : 22,
            "componentType" : 5126,
            "count" : 24,
            "type" : "VEC2"
        },
        {
            "bufferView" : 23,
            "componentType" : 5123,
            "count" : 36,
            "type" : "SCALAR"
        },
        {
            "bufferView" : 24,
            "componentType" : 5126,
            "count" : 672,
            "max" : [
                1.7016819715499878,
                0.696251392364502,
                0.024300575256347656
            ],
            "min" : [
                -1.7035081386566162,
                -0.6958799362182617,
                -0.023259639739990234
            ],
            "type" : "VEC3"
        },
        {
            "bufferView" : 25,
            "componentType" : 5126,
            "count" : 672,
            "type" : "VEC3"
        },
        {
            "bufferView" : 26,
            "componentType" : 5126,
            "count" : 672,
            "type" : "VEC2"
        },
        {
            "bufferView" : 27,
            "componentType" : 5123,
            "count" : 1920,
            "type" : "SCALAR"
        },
        {
            "bufferView" : 28,
            "componentType" : 5126,
            "count" : 120,
            "max" : [
                1.4495866298675537,
                0.1909937858581543,
                3.392183542251587
            ],
            "min" : [
                -2.836449384689331,
                -1.7686548233032227,
                -0.37221431732177734
            ],
            "type" : "VEC3"
        },
        {
            "bufferView" : 29,
            "componentType" : 5126,
            "count" : 120,
            "type" : "VEC3"
        },
        {
            "bufferView" : 30,
            "componentType" : 5126,
            "count" : 120,
            "type" : "VEC2"
        },
        {
            "bufferView" : 31,
            "componentType" : 5123,
            "count" : 228,
            "type" : "SCALAR"
        },
        {
            "bufferView" : 32,
            "componentType" : 5126,
            "count" : 800,
            "max" : [
                0.9224456548690796,
                0.24996471405029297,
                0.11109447479248047
            ],
            "min" : [
                -0.4000593423843384,
                -0.023621082305908203,
                -0.1624922752380371
            ],
            "type" : "VEC3"
        },
        {
            "bufferView" : 33,
            "componentType" : 5126,
            "count" : 800,
            "type" : "VEC3"
        },
        {
            "bufferView" : 34,
            "componentType" : 5126,
            "count" : 800,
            "type" : "VEC2"
        },
        {
            "bufferView" : 35,
            "componentType" : 5123,
            "count" : 960,
            "type" : "SCALAR"
        },
        {
            "bufferView" : 36,
            "componentType" : 5126,
            "count" : 200,
            "max" : [
                0.5190686583518982,
                0.23747587203979492,
                0.05032968521118164
            ],
            "min" : [
                0.3670106530189514,
                0.0854177474975586,
                -0.10172843933105469
            ],
            "type" : "VEC3"
        },
        {
            "bufferView" : 37,
            "componentType" : 5126,
            "count" : 200,
            "type" : "VEC3"
        },
        {
            "bufferView" : 38,
            "componentType" : 5126,
            "count" : 200,
            "type" : "VEC2"
        },
        {
            "bufferView" : 39,
            "componentType" : 5123,
            "count" : 240,
            "type" : "SCALAR"
        },
        {
            "bufferView" : 40,
            "componentType" : 5126,
            "count" : 24,
            "max" : [
                8.506152153015137,
                11.152488708496094,
                0.4226139783859253
            ],
            "min" : [
                -8.506152153015137,
                -8.538169860839844,
                -0.4226144552230835
            ],
            "type" : "VEC3"
        },
        {
            "bufferView" : 41,
            "componentType" : 5126,
            "count" : 24,
            "type" : "VEC3"
        },
        {
            "bufferView" : 42,
            "componentType" : 5126,
            "count" : 24,
            "type" : "VEC2"
        }
    ],
    "bufferViews" : [
        {
            "buffer" : 0,
            "byteLength" : 816,
            "byteOffset" : 0
        },
        {
            "buffer" : 0,
            "byteLength" : 816,
            "byteOffset" : 816
        },
        {
            "buffer" : 0,
            "byteLength" : 544,
            "byteOffset" : 1632
        },
        {
            "buffer" : 0,
            "byteLength" : 204,
            "byteOffset" : 2176
        },
        {
            "buffer" : 0,
            "byteLength" : 8544,
            "byteOffset" : 2380
        },
        {
            "buffer" : 0,
            "byteLength" : 8544,
            "byteOffset" : 10924
        },
        {
            "buffer" : 0,
            "byteLength" : 5696,
            "byteOffset" : 19468
        },
        {
            "buffer" : 0,
            "byteLength" : 4680,
            "byteOffset" : 25164
        },
        {
            "buffer" : 0,
            "byteLength" : 8544,
            "byteOffset" : 29844
        },
        {
            "buffer" : 0,
            "byteLength" : 8544,
            "byteOffset" : 38388
        },
        {
            "buffer" : 0,
            "byteLength" : 5696,
            "byteOffset" : 46932
        },
        {
            "buffer" : 0,
            "byteLength" : 4680,
            "byteOffset" : 52628
        },
        {
            "buffer" : 0,
            "byteLength" : 3192,
            "byteOffset" : 57308
        },
        {
            "buffer" : 0,
            "byteLength" : 3192,
            "byteOffset" : 60500
        },
        {
            "buffer" : 0,
            "byteLength" : 2128,
            "byteOffset" : 63692
        },
        {
            "buffer" : 0,
            "byteLength" : 1896,
            "byteOffset" : 65820
        },
        {
            "buffer" : 0,
            "byteLength" : 8544,
            "byteOffset" : 67716
        },
        {
            "buffer" : 0,
            "byteLength" : 8544,
            "byteOffset" : 76260
        },
        {
            "buffer" : 0,
            "byteLength" : 5696,
            "byteOffset" : 84804
        },
        {
            "buffer" : 0,
            "byteLength" : 4680,
            "byteOffset" : 90500
        },
        {
            "buffer" : 0,
            "byteLength" : 288,
            "byteOffset" : 95180
        },
        {
            "buffer" : 0,
            "byteLength" : 288,
            "byteOffset" : 95468
        },
        {
            "buffer" : 0,
            "byteLength" : 192,
            "byteOffset" : 95756
        },
        {
            "buffer" : 0,
            "byteLength" : 72,
            "byteOffset" : 95948
        },
        {
            "buffer" : 0,
            "byteLength" : 8064,
            "byteOffset" : 96020
        },
        {
            "buffer" : 0,
            "byteLength" : 8064,
            "byteOffset" : 104084
        },
        {
            "buffer" : 0,
            "byteLength" : 5376,
            "byteOffset" : 112148
        },
        {
            "buffer" : 0,
            "byteLength" : 3840,
            "byteOffset" : 117524
        },
        {
            "buffer" : 0,
            "byteLength" : 1440,
            "byteOffset" : 121364
        },
        {
            "buffer" : 0,
            "byteLength" : 1440,
            "byteOffset" : 122804
        },
        {
            "buffer" : 0,
            "byteLength" : 960,
            "byteOffset" : 124244
        },
        {
            "buffer" : 0,
            "byteLength" : 456,
            "byteOffset" : 125204
        },
        {
            "buffer" : 0,
            "byteLength" : 9600,
            "byteOffset" : 125660
        },
        {
            "buffer" : 0,
            "byteLength" : 9600,
            "byteOffset" : 135260
        },
        {
            "buffer" : 0,
            "byteLength" : 6400,
            "byteOffset" : 144860
        },
        {
            "buffer" : 0,
            "byteLength" : 1920,
            "byteOffset" : 151260
        },
        {
            "buffer" : 0,
            "byteLength" : 2400,
            "byteOffset" : 153180
        },
        {
            "buffer" : 0,
            "byteLength" : 2400,
            "byteOffset" : 155580
        },
        {
            "buffer" : 0,
            "byteLength" : 1600,
            "byteOffset" : 157980
        },
        {
            "buffer" : 0,
            "byteLength" : 480,
            "byteOffset" : 159580
        },
        {
            "buffer" : 0,
            "byteLength" : 288,
            "byteOffset" : 160060
        },
        {
            "buffer" : 0,
            "byteLength" : 288,
            "byteOffset" : 160348
        },
        {
            "buffer" : 0,
            "byteLength" : 192,
            "byteOffset" : 160636
        }
    ],
    "buffers" : [
        {
            "byteLength" : 160828,
            "uri" : "data:application/octet-stream;base64,"
        }
    ]
}
