# Blender v2.80 (sub 75) OBJ File: 'borgor.blend'
# www.blender.org
mtllib Patty.mtl
o Patty_Cylinder.002
v 0.000000 0.008250 0.000000
v 0.000000 0.119909 0.000000
v 0.000000 0.008250 -0.806967
v 0.000000 0.119909 -0.806967
v 0.474323 0.008250 -0.652850
v 0.474323 0.119909 -0.652850
v 0.767471 0.008250 -0.249367
v 0.767471 0.119909 -0.249367
v 0.767471 0.008250 0.249367
v 0.767471 0.119909 0.249367
v 0.474323 0.008250 0.652850
v 0.474323 0.119909 0.652850
v -0.000000 0.008250 0.806967
v -0.000000 0.119909 0.806967
v -0.474324 0.008250 0.652850
v -0.474324 0.119909 0.652850
v -0.767472 0.008250 0.249366
v -0.767472 0.119909 0.249366
v -0.767471 0.008250 -0.249367
v -0.767471 0.119909 -0.249367
v -0.474322 0.008250 -0.652851
v -0.474322 0.119909 -0.652851
vt 0.250000 0.250000
vt 0.391068 0.444164
vt 0.250000 0.490000
vt 1.000000 1.000000
vt 0.900000 1.000000
vt 0.900000 0.500000
vt 1.000000 0.500000
vt 0.891068 0.444164
vt 0.978254 0.324164
vt 0.750000 0.250000
vt 0.478254 0.324164
vt 0.800000 1.000000
vt 0.800000 0.500000
vt 0.978254 0.175836
vt 0.478254 0.175836
vt 0.700000 1.000000
vt 0.700000 0.500000
vt 0.891068 0.055836
vt 0.391068 0.055836
vt 0.600000 1.000000
vt 0.600000 0.500000
vt 0.750000 0.010000
vt 0.250000 0.010000
vt 0.500000 1.000000
vt 0.500000 0.500000
vt 0.608931 0.055836
vt 0.108931 0.055836
vt 0.400000 1.000000
vt 0.400000 0.500000
vt 0.521746 0.175836
vt 0.021746 0.175836
vt 0.300000 1.000000
vt 0.300000 0.500000
vt 0.521747 0.324164
vt 0.021747 0.324164
vt 0.200000 1.000000
vt 0.200000 0.500000
vt 0.608932 0.444164
vt 0.108932 0.444164
vt 0.100000 1.000000
vt 0.100000 0.500000
vt 0.750000 0.490000
vt -0.000000 1.000000
vt -0.000000 0.500000
vn 0.0000 1.0000 0.0000
vn 0.3090 0.0000 -0.9511
vn 0.0000 -1.0000 0.0000
vn 0.8090 0.0000 -0.5878
vn 1.0000 0.0000 0.0000
vn 0.8090 0.0000 0.5878
vn 0.3090 0.0000 0.9511
vn -0.3090 0.0000 0.9511
vn -0.8090 0.0000 0.5878
vn -1.0000 0.0000 -0.0000
vn -0.8090 0.0000 -0.5878
vn -0.3090 0.0000 -0.9511
usemtl Patty
s off
f 2/1/1 6/2/1 4/3/1
f 4/4/2 6/5/2 5/6/2 3/7/2
f 5/8/3 7/9/3 1/10/3
f 2/1/1 8/11/1 6/2/1
f 6/5/4 8/12/4 7/13/4 5/6/4
f 7/9/3 9/14/3 1/10/3
f 2/1/1 10/15/1 8/11/1
f 8/12/5 10/16/5 9/17/5 7/13/5
f 9/14/3 11/18/3 1/10/3
f 2/1/1 12/19/1 10/15/1
f 10/16/6 12/20/6 11/21/6 9/17/6
f 11/18/3 13/22/3 1/10/3
f 2/1/1 14/23/1 12/19/1
f 12/20/7 14/24/7 13/25/7 11/21/7
f 13/22/3 15/26/3 1/10/3
f 2/1/1 16/27/1 14/23/1
f 14/24/8 16/28/8 15/29/8 13/25/8
f 15/26/3 17/30/3 1/10/3
f 2/1/1 18/31/1 16/27/1
f 16/28/9 18/32/9 17/33/9 15/29/9
f 17/30/3 19/34/3 1/10/3
f 2/1/1 20/35/1 18/31/1
f 18/32/10 20/36/10 19/37/10 17/33/10
f 19/34/3 21/38/3 1/10/3
f 2/1/1 22/39/1 20/35/1
f 20/36/11 22/40/11 21/41/11 19/37/11
f 21/38/3 3/42/3 1/10/3
f 2/1/1 4/3/1 22/39/1
f 22/40/12 4/43/12 3/44/12 21/41/12
f 3/42/3 5/8/3 1/10/3
