# Blender v2.80 (sub 75) OBJ File: 'Kitchen.blend'
# www.blender.org
mtllib Plate.mtl
o Plate_kitchen.027
v 1.085735 0.197527 -0.349994
v 0.923479 0.197527 -0.668440
v 0.877454 0.229611 -0.635001
v 1.031629 0.229611 -0.332414
v 0.670760 0.197527 -0.921159
v 0.637320 0.229611 -0.875134
v 0.352314 0.197527 -1.083415
v 0.334734 0.229611 -1.029309
v -0.000684 0.197527 -1.139324
v -0.000684 0.229611 -1.082434
v -0.353683 0.197527 -1.083415
v -0.336103 0.229611 -1.029309
v -0.672127 0.197527 -0.921159
v -0.638688 0.229611 -0.875134
v -0.924847 0.197527 -0.668439
v -0.878822 0.229611 -0.635000
v -1.087103 0.197527 -0.349994
v -1.032997 0.229611 -0.332415
v -1.143012 0.197527 0.003004
v -1.086122 0.229611 0.003004
v -1.087103 0.197527 0.356003
v -1.032997 0.229611 0.338423
v -0.924847 0.197527 0.674448
v -0.878822 0.229611 0.641009
v -0.672128 0.197527 0.927167
v -0.638689 0.229611 0.881141
v -0.353682 0.197527 1.089423
v -0.336103 0.229611 1.035317
v -0.000684 0.197527 1.145332
v -0.000684 0.229611 1.088442
v 0.352315 0.197527 1.089423
v 0.334735 0.229611 1.035317
v 0.670759 0.197527 0.927167
v 0.637320 0.229611 0.881142
v 0.923478 0.197527 0.674448
v 0.877453 0.229611 0.641009
v 1.085734 0.197527 0.356003
v 1.031629 0.229611 0.338423
v 1.141644 0.197527 0.003004
v 1.084754 0.229611 0.003004
v 0.594186 0.011215 -0.429194
v 0.698628 0.011215 -0.224216
v -0.000684 0.011215 0.003004
v 0.431514 0.011215 -0.591866
v 0.226536 0.011215 -0.696308
v -0.000684 0.011215 -0.732296
v -0.227904 0.011215 -0.696308
v -0.432882 0.011215 -0.591866
v -0.595554 0.011215 -0.429194
v -0.699996 0.011215 -0.224216
v -0.735984 0.011215 0.003004
v -0.699996 0.011215 0.230224
v -0.595554 0.011215 0.435203
v -0.432882 0.011215 0.597874
v -0.227904 0.011215 0.702316
v -0.000684 0.011215 0.738304
v 0.226536 0.011215 0.702316
v 0.431514 0.011215 0.597874
v 0.594186 0.011215 0.435202
v 0.698627 0.011215 0.230224
v 0.734616 0.011215 0.003004
v 0.698628 0.046546 -0.224216
v 0.594186 0.046546 -0.429194
v -0.000684 0.046546 0.003004
v 0.431514 0.046546 -0.591866
v 0.226536 0.046546 -0.696308
v -0.000684 0.046546 -0.732296
v -0.227904 0.046546 -0.696308
v -0.432882 0.046546 -0.591866
v -0.595554 0.046546 -0.429194
v -0.699996 0.046546 -0.224216
v -0.735984 0.046546 0.003004
v -0.699996 0.046546 0.230224
v -0.595554 0.046546 0.435203
v -0.432882 0.046546 0.597874
v -0.227904 0.046546 0.702316
v -0.000684 0.046546 0.738304
v 0.226536 0.046546 0.702316
v 0.431514 0.046546 0.597874
v 0.594186 0.046546 0.435202
v 0.698627 0.046546 0.230224
v 0.734616 0.046546 0.003004
v 0.774872 0.081136 -0.560470
v 0.911036 0.081136 -0.293232
v 0.911037 0.147674 -0.293232
v 0.774872 0.147675 -0.560470
v 0.562790 0.081136 -0.772551
v 0.562790 0.147674 -0.772552
v 0.295552 0.081136 -0.908716
v 0.295552 0.147674 -0.908716
v -0.000684 0.081136 -0.955635
v -0.000684 0.147675 -0.955635
v -0.296920 0.081136 -0.908716
v -0.296920 0.147675 -0.908716
v -0.564158 0.081136 -0.772551
v -0.564158 0.147675 -0.772551
v -0.776240 0.081136 -0.560470
v -0.776240 0.147674 -0.560470
v -0.912404 0.081136 -0.293231
v -0.912404 0.147675 -0.293232
v -0.959323 0.081136 0.003004
v -0.959323 0.147674 0.003004
v -0.912404 0.081136 0.299240
v -0.912404 0.147674 0.299240
v -0.776239 0.081136 0.566479
v -0.776239 0.147674 0.566478
v -0.564159 0.081136 0.778559
v -0.564158 0.147674 0.778560
v -0.296919 0.081136 0.914724
v -0.296920 0.147674 0.914724
v -0.000684 0.081136 0.961644
v -0.000684 0.147674 0.961644
v 0.295552 0.081136 0.914724
v 0.295552 0.147674 0.914724
v 0.562790 0.081136 0.778559
v 0.562790 0.147674 0.778559
v 0.774871 0.081136 0.566479
v 0.774871 0.147674 0.566479
v 0.911036 0.081136 0.299240
v 0.911036 0.147674 0.299240
v 0.957955 0.081136 0.003004
v 0.957955 0.147674 0.003004
v 0.872900 0.126384 -0.631692
v 1.026276 0.126384 -0.330675
v 0.970269 0.168775 -0.312477
v 0.825257 0.168776 -0.597078
v 0.634012 0.126384 -0.870580
v 0.599397 0.168776 -0.822937
v 0.332995 0.126384 -1.023956
v 0.314797 0.168776 -0.967948
v -0.000684 0.126384 -1.076805
v -0.000684 0.168776 -1.017916
v -0.334364 0.126384 -1.023956
v -0.316166 0.168776 -0.967948
v -0.635380 0.126384 -0.870580
v -0.600765 0.168776 -0.822937
v -0.874268 0.126384 -0.631692
v -0.826626 0.168776 -0.597077
v -1.027644 0.126384 -0.330675
v -0.971636 0.168776 -0.312477
v -1.080493 0.126384 0.003004
v -1.021603 0.168776 0.003004
v -1.027644 0.126384 0.336683
v -0.971636 0.168776 0.318485
v -0.874268 0.126384 0.637700
v -0.826625 0.168775 0.603086
v -0.635380 0.126384 0.876588
v -0.600766 0.168775 0.828945
v -0.334363 0.126384 1.029964
v -0.316165 0.168776 0.973956
v -0.000684 0.126384 1.082813
v -0.000684 0.168775 1.023924
v 0.332995 0.126384 1.029964
v 0.314798 0.168775 0.973956
v 0.634012 0.126384 0.876588
v 0.599397 0.168776 0.828945
v 0.872900 0.126384 0.637700
v 0.825257 0.168775 0.603086
v 1.026275 0.126384 0.336683
v 0.970268 0.168776 0.318485
v 1.079125 0.126384 0.003004
v 1.020235 0.168776 0.003004
vt 0.208047 0.509045
vt 0.285833 0.508605
vt 0.283703 0.522684
vt 0.210284 0.523114
vt 0.359931 0.532333
vt 0.353536 0.545052
vt 0.422995 0.577881
vt 0.412966 0.587988
vt 0.468830 0.640764
vt 0.456155 0.647266
vt 0.492936 0.714810
vt 0.478854 0.717067
vt 0.492936 0.792784
vt 0.478817 0.790564
vt 0.468737 0.867154
vt 0.455937 0.860607
vt 0.422599 0.930324
vt 0.412537 0.920182
vt 0.359446 0.975917
vt 0.353030 0.963249
vt 0.285312 0.999852
vt 0.283085 0.985735
vt 0.207052 0.999731
vt 0.209333 0.985527
vt 0.132677 0.975340
vt 0.139220 0.962623
vt 0.069689 0.929328
vt 0.079799 0.919285
vt 0.024115 0.866384
vt 0.036741 0.859966
vt 0.000148 0.792500
vt 0.014201 0.790266
vt 0.000266 0.714679
vt 0.014335 0.716912
vt 0.024534 0.640710
vt 0.037219 0.647200
vt 0.070565 0.577922
vt 0.080610 0.588033
vt 0.133841 0.532532
vt 0.140248 0.545259
vt 0.409857 0.230471
vt 0.409678 0.279789
vt 0.254187 0.254830
vt 0.394589 0.183599
vt 0.365777 0.143624
vt 0.325898 0.114704
vt 0.279104 0.099343
vt 0.229800 0.099283
vt 0.182845 0.114480
vt 0.142952 0.143464
vt 0.114034 0.183314
vt 0.098824 0.230113
vt 0.098777 0.279302
vt 0.114029 0.326035
vt 0.142943 0.365771
vt 0.182595 0.394820
vt 0.229320 0.409998
vt 0.278371 0.410259
vt 0.325110 0.395210
vt 0.365006 0.366355
vt 0.394240 0.326631
vt 0.709732 0.595083
vt 0.758932 0.595111
vt 0.734522 0.750358
vt 0.805725 0.610339
vt 0.845503 0.639282
vt 0.874283 0.679060
vt 0.889686 0.725680
vt 0.889497 0.774803
vt 0.874564 0.821575
vt 0.845589 0.861242
vt 0.805719 0.890014
vt 0.759088 0.905459
vt 0.710030 0.905338
vt 0.663418 0.890157
vt 0.623757 0.861384
vt 0.594881 0.821760
vt 0.579623 0.775133
vt 0.579492 0.726095
vt 0.594519 0.679396
vt 0.623297 0.639592
vt 0.663060 0.610670
vt 0.459660 0.222642
vt 0.459552 0.287732
vt 0.701291 0.542783
vt 0.767025 0.542635
vt 0.439626 0.160727
vt 0.829644 0.562954
vt 0.401455 0.108038
vt 0.883002 0.601632
vt 0.348885 0.069707
vt 0.921706 0.654815
vt 0.287012 0.049410
vt 0.941909 0.717363
vt 0.221859 0.049436
vt 0.941966 0.783097
vt 0.159783 0.069516
vt 0.921707 0.845505
vt 0.107132 0.107932
vt 0.883198 0.898648
vt 0.069087 0.160592
vt 0.829871 0.937350
vt 0.049100 0.222356
vt 0.767342 0.957676
vt 0.049188 0.287187
vt 0.701877 0.957554
vt 0.069183 0.348785
vt 0.639608 0.937340
vt 0.107265 0.401323
vt 0.586577 0.898989
vt 0.159737 0.439544
vt 0.547907 0.846074
vt 0.221377 0.459632
vt 0.527393 0.783735
vt 0.285987 0.459871
vt 0.527126 0.718184
vt 0.347628 0.440225
vt 0.547096 0.655698
vt 0.400560 0.402265
vt 0.585472 0.602283
vt 0.439235 0.349667
vt 0.638658 0.563300
vt 0.487650 0.218145
vt 0.487591 0.292134
vt 0.698976 0.528434
vt 0.769269 0.528347
vt 0.464845 0.147807
vt 0.836240 0.550006
vt 0.421444 0.087970
vt 0.893284 0.591362
vt 0.361712 0.044452
vt 0.934655 0.648232
vt 0.291529 0.021276
vt 0.956305 0.715085
vt 0.217464 0.021485
vt 0.956282 0.785351
vt 0.146821 0.044143
vt 0.934562 0.852039
vt 0.087090 0.087888
vt 0.893467 0.908917
vt 0.043926 0.147830
vt 0.836485 0.950348
vt 0.021117 0.217967
vt 0.769602 0.972001
vt 0.021392 0.291613
vt 0.699615 0.971820
vt 0.044071 0.361659
vt 0.633074 0.950219
vt 0.087318 0.421339
vt 0.576430 0.909190
vt 0.146865 0.464772
vt 0.534974 0.852721
vt 0.216859 0.487426
vt 0.513105 0.786060
vt 0.290247 0.487655
vt 0.512888 0.715994
vt 0.360346 0.465471
vt 0.534148 0.649176
vt 0.420561 0.422386
vt 0.575146 0.592043
vt 0.464568 0.362580
vt 0.631976 0.550297
vt 0.508663 0.214718
vt 0.508663 0.295381
vt 0.695735 0.508738
vt 0.772268 0.508605
vt 0.483759 0.138061
vt 0.845386 0.532016
vt 0.436419 0.072867
vt 0.907472 0.577323
vt 0.371299 0.025493
vt 0.952254 0.639276
vt 0.294878 0.000479
vt 0.975948 0.711884
vt 0.214114 0.000148
vt 0.975948 0.788381
vt 0.136997 0.025176
vt 0.952336 0.860974
vt 0.071896 0.072975
vt 0.907669 0.922940
vt 0.024927 0.138325
vt 0.845617 0.968313
vt 0.000148 0.214801
vt 0.772630 0.991493
vt 0.000480 0.295061
vt 0.696586 0.991403
vt 0.025228 0.371361
vt 0.624170 0.967932
vt 0.072374 0.436396
vt 0.562501 0.923326
vt 0.137343 0.483704
vt 0.517342 0.861890
vt 0.213661 0.508298
vt 0.493498 0.789320
vt 0.293395 0.508309
vt 0.493232 0.713061
vt 0.369702 0.484533
vt 0.516314 0.640322
vt 0.435754 0.437789
vt 0.560885 0.578062
vt 0.483647 0.372242
vt 0.622761 0.532556
vn 0.4672 0.8710 -0.1518
vn 0.3974 0.8710 -0.2887
vn 0.2887 0.8710 -0.3974
vn 0.1518 0.8710 -0.4672
vn 0.0000 0.8710 -0.4912
vn -0.1518 0.8710 -0.4672
vn -0.2887 0.8710 -0.3974
vn -0.3974 0.8710 -0.2887
vn -0.4672 0.8710 -0.1518
vn -0.4912 0.8710 -0.0000
vn -0.4672 0.8710 0.1518
vn -0.3974 0.8710 0.2887
vn -0.2887 0.8710 0.3974
vn -0.1518 0.8710 0.4672
vn -0.0000 0.8710 0.4912
vn 0.1518 0.8710 0.4672
vn 0.2887 0.8710 0.3974
vn 0.3974 0.8710 0.2887
vn 0.4672 0.8710 0.1518
vn 0.4912 0.8710 0.0000
vn 0.1108 -0.9906 -0.0805
vn 0.1302 -0.9906 -0.0423
vn -0.0000 -1.0000 -0.0000
vn 0.0805 -0.9906 -0.1108
vn 0.0423 -0.9906 -0.1302
vn -0.0000 -0.9906 -0.1369
vn -0.0423 -0.9906 -0.1302
vn -0.0805 -0.9906 -0.1108
vn -0.1108 -0.9906 -0.0805
vn -0.1302 -0.9906 -0.0423
vn -0.1369 -0.9906 0.0000
vn -0.1302 -0.9906 0.0423
vn -0.1108 -0.9906 0.0805
vn -0.0805 -0.9906 0.1108
vn -0.0423 -0.9906 0.1302
vn 0.0000 -0.9906 0.1369
vn 0.0423 -0.9906 0.1302
vn 0.0805 -0.9906 0.1108
vn 0.1108 -0.9906 0.0805
vn 0.1302 -0.9906 0.0423
vn 0.1369 -0.9906 0.0000
vn -0.1843 0.9810 0.0598
vn -0.1568 0.9810 0.1139
vn 0.0000 1.0000 0.0000
vn -0.1139 0.9810 0.1568
vn -0.0599 0.9810 0.1843
vn -0.0000 0.9810 0.1938
vn 0.0599 0.9810 0.1843
vn 0.1139 0.9810 0.1568
vn 0.1568 0.9810 0.1139
vn 0.1843 0.9810 0.0599
vn 0.1938 0.9810 0.0000
vn 0.1843 0.9810 -0.0599
vn 0.1568 0.9810 -0.1139
vn 0.1139 0.9810 -0.1568
vn 0.0599 0.9810 -0.1843
vn 0.0000 0.9810 -0.1938
vn -0.0599 0.9810 -0.1843
vn -0.1139 0.9810 -0.1568
vn -0.1568 0.9810 -0.1139
vn -0.1843 0.9810 -0.0599
vn -0.1938 0.9810 -0.0000
vn 0.2397 -0.9550 -0.1747
vn 0.2821 -0.9550 -0.0916
vn -0.2463 0.9662 0.0763
vn -0.2085 0.9662 0.1515
vn 0.1740 -0.9550 -0.2402
vn -0.1515 0.9662 0.2085
vn 0.0912 -0.9550 -0.2822
vn -0.0797 0.9662 0.2451
vn -0.0005 -0.9550 -0.2966
vn -0.0000 0.9662 0.2577
vn -0.0921 -0.9550 -0.2819
vn 0.0796 0.9662 0.2451
vn -0.1747 -0.9550 -0.2397
vn 0.1515 0.9662 0.2085
vn -0.2402 -0.9550 -0.1740
vn 0.2085 0.9662 0.1515
vn -0.2822 -0.9550 -0.0912
vn 0.2451 0.9662 0.0797
vn -0.2966 -0.9550 0.0005
vn 0.2577 0.9662 0.0000
vn -0.2819 -0.9550 0.0921
vn 0.2451 0.9662 -0.0796
vn -0.2397 -0.9550 0.1747
vn 0.2085 0.9662 -0.1515
vn -0.1740 -0.9550 0.2402
vn 0.1515 0.9662 -0.2085
vn -0.0912 -0.9550 0.2822
vn 0.0797 0.9662 -0.2451
vn 0.0005 -0.9550 0.2966
vn 0.0000 0.9662 -0.2577
vn 0.0921 -0.9550 0.2819
vn -0.0796 0.9662 -0.2451
vn 0.1747 -0.9550 0.2397
vn -0.1515 0.9662 -0.2085
vn 0.2402 -0.9550 0.1740
vn -0.2085 0.9662 -0.1515
vn 0.2822 -0.9550 0.0912
vn -0.2451 0.9662 -0.0796
vn 0.2966 -0.9550 -0.0005
vn -0.2577 0.9662 -0.0000
vn 0.4742 -0.8103 -0.3444
vn 0.5574 -0.8102 -0.1811
vn -0.5087 0.8449 0.1656
vn -0.4328 0.8449 0.3145
vn 0.3446 -0.8103 -0.4741
vn -0.3145 0.8449 0.4328
vn 0.1812 -0.8103 -0.5574
vn -0.1653 0.8449 0.5088
vn 0.0001 -0.8103 -0.5861
vn -0.0000 0.8449 0.5350
vn -0.1810 -0.8103 -0.5574
vn 0.1653 0.8449 0.5088
vn -0.3444 -0.8103 -0.4742
vn 0.3145 0.8449 0.4328
vn -0.4741 -0.8102 -0.3446
vn 0.4328 0.8449 0.3145
vn -0.5574 -0.8103 -0.1812
vn 0.5088 0.8449 0.1653
vn -0.5860 -0.8103 -0.0001
vn 0.5350 0.8449 0.0000
vn -0.5574 -0.8103 0.1810
vn 0.5088 0.8449 -0.1653
vn -0.4742 -0.8103 0.3444
vn 0.4328 0.8449 -0.3145
vn -0.3446 -0.8103 0.4741
vn 0.3145 0.8449 -0.4328
vn -0.1812 -0.8103 0.5574
vn 0.1653 0.8449 -0.5088
vn -0.0001 -0.8103 0.5861
vn 0.0000 0.8449 -0.5350
vn 0.1810 -0.8103 0.5574
vn -0.1653 0.8449 -0.5088
vn 0.3444 -0.8103 0.4742
vn -0.3145 0.8449 -0.4328
vn 0.4741 -0.8102 0.3446
vn -0.4328 0.8449 -0.3145
vn 0.5574 -0.8103 0.1812
vn -0.5088 0.8449 -0.1653
vn 0.5861 -0.8103 0.0001
vn -0.5350 0.8449 -0.0000
vn 0.6077 -0.6601 -0.4415
vn 0.7144 -0.6601 -0.2321
vn -0.6525 0.7276 0.2120
vn -0.5550 0.7276 0.4032
vn 0.4415 -0.6601 -0.6077
vn -0.4032 0.7276 0.5550
vn 0.2321 -0.6601 -0.7144
vn -0.2120 0.7276 0.6525
vn 0.0000 -0.6601 -0.7512
vn -0.0000 0.7276 0.6860
vn -0.2321 -0.6601 -0.7144
vn 0.2120 0.7276 0.6525
vn -0.4415 -0.6601 -0.6077
vn 0.4032 0.7276 0.5550
vn -0.6077 -0.6601 -0.4415
vn 0.5550 0.7276 0.4032
vn -0.7144 -0.6601 -0.2321
vn 0.6525 0.7276 0.2120
vn -0.7512 -0.6601 -0.0000
vn 0.6860 0.7276 0.0000
vn -0.7144 -0.6601 0.2321
vn 0.6525 0.7276 -0.2120
vn -0.6077 -0.6601 0.4415
vn 0.5550 0.7276 -0.4032
vn -0.4415 -0.6601 0.6077
vn 0.4032 0.7276 -0.5550
vn -0.2321 -0.6601 0.7144
vn 0.2120 0.7276 -0.6525
vn -0.0000 -0.6601 0.7512
vn 0.0000 0.7276 -0.6860
vn 0.2321 -0.6601 0.7144
vn -0.2120 0.7276 -0.6525
vn 0.4415 -0.6601 0.6077
vn -0.4032 0.7276 -0.5550
vn 0.6077 -0.6601 0.4415
vn -0.5550 0.7276 -0.4032
vn 0.7144 -0.6601 0.2321
vn -0.6525 0.7276 -0.2120
vn 0.7512 -0.6601 0.0000
vn -0.6860 0.7276 -0.0000
usemtl Plate
s 1
f 1/1/1 2/2/2 3/3/2 4/4/1
f 2/2/2 5/5/3 6/6/3 3/3/2
f 5/5/3 7/7/4 8/8/4 6/6/3
f 7/7/4 9/9/5 10/10/5 8/8/4
f 9/9/5 11/11/6 12/12/6 10/10/5
f 11/11/6 13/13/7 14/14/7 12/12/6
f 13/13/7 15/15/8 16/16/8 14/14/7
f 15/15/8 17/17/9 18/18/9 16/16/8
f 17/17/9 19/19/10 20/20/10 18/18/9
f 19/19/10 21/21/11 22/22/11 20/20/10
f 21/21/11 23/23/12 24/24/12 22/22/11
f 23/23/12 25/25/13 26/26/13 24/24/12
f 25/25/13 27/27/14 28/28/14 26/26/13
f 27/27/14 29/29/15 30/30/15 28/28/14
f 29/29/15 31/31/16 32/32/16 30/30/15
f 31/31/16 33/33/17 34/34/17 32/32/16
f 33/33/17 35/35/18 36/36/18 34/34/17
f 35/35/18 37/37/19 38/38/19 36/36/18
f 37/37/19 39/39/20 40/40/20 38/38/19
f 39/39/20 1/1/1 4/4/1 40/40/20
f 41/41/21 42/42/22 43/43/23
f 44/44/24 41/41/21 43/43/23
f 45/45/25 44/44/24 43/43/23
f 46/46/26 45/45/25 43/43/23
f 47/47/27 46/46/26 43/43/23
f 48/48/28 47/47/27 43/43/23
f 49/49/29 48/48/28 43/43/23
f 50/50/30 49/49/29 43/43/23
f 51/51/31 50/50/30 43/43/23
f 52/52/32 51/51/31 43/43/23
f 53/53/33 52/52/32 43/43/23
f 54/54/34 53/53/33 43/43/23
f 55/55/35 54/54/34 43/43/23
f 56/56/36 55/55/35 43/43/23
f 57/57/37 56/56/36 43/43/23
f 58/58/38 57/57/37 43/43/23
f 59/59/39 58/58/38 43/43/23
f 60/60/40 59/59/39 43/43/23
f 61/61/41 60/60/40 43/43/23
f 42/42/22 61/61/41 43/43/23
f 62/62/42 63/63/43 64/64/44
f 63/63/43 65/65/45 64/64/44
f 65/65/45 66/66/46 64/64/44
f 66/66/46 67/67/47 64/64/44
f 67/67/47 68/68/48 64/64/44
f 68/68/48 69/69/49 64/64/44
f 69/69/49 70/70/50 64/64/44
f 70/70/50 71/71/51 64/64/44
f 71/71/51 72/72/52 64/64/44
f 72/72/52 73/73/53 64/64/44
f 73/73/53 74/74/54 64/64/44
f 74/74/54 75/75/55 64/64/44
f 75/75/55 76/76/56 64/64/44
f 76/76/56 77/77/57 64/64/44
f 77/77/57 78/78/58 64/64/44
f 78/78/58 79/79/59 64/64/44
f 79/79/59 80/80/60 64/64/44
f 80/80/60 81/81/61 64/64/44
f 81/81/61 82/82/62 64/64/44
f 82/82/62 62/62/42 64/64/44
f 42/42/22 41/41/21 83/83/63 84/84/64
f 63/63/43 62/62/42 85/85/65 86/86/66
f 41/41/21 44/44/24 87/87/67 83/83/63
f 65/65/45 63/63/43 86/86/66 88/88/68
f 44/44/24 45/45/25 89/89/69 87/87/67
f 66/66/46 65/65/45 88/88/68 90/90/70
f 45/45/25 46/46/26 91/91/71 89/89/69
f 67/67/47 66/66/46 90/90/70 92/92/72
f 46/46/26 47/47/27 93/93/73 91/91/71
f 68/68/48 67/67/47 92/92/72 94/94/74
f 47/47/27 48/48/28 95/95/75 93/93/73
f 69/69/49 68/68/48 94/94/74 96/96/76
f 48/48/28 49/49/29 97/97/77 95/95/75
f 70/70/50 69/69/49 96/96/76 98/98/78
f 49/49/29 50/50/30 99/99/79 97/97/77
f 71/71/51 70/70/50 98/98/78 100/100/80
f 50/50/30 51/51/31 101/101/81 99/99/79
f 72/72/52 71/71/51 100/100/80 102/102/82
f 51/51/31 52/52/32 103/103/83 101/101/81
f 73/73/53 72/72/52 102/102/82 104/104/84
f 52/52/32 53/53/33 105/105/85 103/103/83
f 74/74/54 73/73/53 104/104/84 106/106/86
f 53/53/33 54/54/34 107/107/87 105/105/85
f 75/75/55 74/74/54 106/106/86 108/108/88
f 54/54/34 55/55/35 109/109/89 107/107/87
f 76/76/56 75/75/55 108/108/88 110/110/90
f 55/55/35 56/56/36 111/111/91 109/109/89
f 77/77/57 76/76/56 110/110/90 112/112/92
f 56/56/36 57/57/37 113/113/93 111/111/91
f 78/78/58 77/77/57 112/112/92 114/114/94
f 57/57/37 58/58/38 115/115/95 113/113/93
f 79/79/59 78/78/58 114/114/94 116/116/96
f 58/58/38 59/59/39 117/117/97 115/115/95
f 80/80/60 79/79/59 116/116/96 118/118/98
f 59/59/39 60/60/40 119/119/99 117/117/97
f 81/81/61 80/80/60 118/118/98 120/120/100
f 60/60/40 61/61/41 121/121/101 119/119/99
f 82/82/62 81/81/61 120/120/100 122/122/102
f 61/61/41 42/42/22 84/84/64 121/121/101
f 62/62/42 82/82/62 122/122/102 85/85/65
f 84/84/64 83/83/63 123/123/103 124/124/104
f 86/86/66 85/85/65 125/125/105 126/126/106
f 83/83/63 87/87/67 127/127/107 123/123/103
f 88/88/68 86/86/66 126/126/106 128/128/108
f 87/87/67 89/89/69 129/129/109 127/127/107
f 90/90/70 88/88/68 128/128/108 130/130/110
f 89/89/69 91/91/71 131/131/111 129/129/109
f 92/92/72 90/90/70 130/130/110 132/132/112
f 91/91/71 93/93/73 133/133/113 131/131/111
f 94/94/74 92/92/72 132/132/112 134/134/114
f 93/93/73 95/95/75 135/135/115 133/133/113
f 96/96/76 94/94/74 134/134/114 136/136/116
f 95/95/75 97/97/77 137/137/117 135/135/115
f 98/98/78 96/96/76 136/136/116 138/138/118
f 97/97/77 99/99/79 139/139/119 137/137/117
f 100/100/80 98/98/78 138/138/118 140/140/120
f 99/99/79 101/101/81 141/141/121 139/139/119
f 102/102/82 100/100/80 140/140/120 142/142/122
f 101/101/81 103/103/83 143/143/123 141/141/121
f 104/104/84 102/102/82 142/142/122 144/144/124
f 103/103/83 105/105/85 145/145/125 143/143/123
f 106/106/86 104/104/84 144/144/124 146/146/126
f 105/105/85 107/107/87 147/147/127 145/145/125
f 108/108/88 106/106/86 146/146/126 148/148/128
f 107/107/87 109/109/89 149/149/129 147/147/127
f 110/110/90 108/108/88 148/148/128 150/150/130
f 109/109/89 111/111/91 151/151/131 149/149/129
f 112/112/92 110/110/90 150/150/130 152/152/132
f 111/111/91 113/113/93 153/153/133 151/151/131
f 114/114/94 112/112/92 152/152/132 154/154/134
f 113/113/93 115/115/95 155/155/135 153/153/133
f 116/116/96 114/114/94 154/154/134 156/156/136
f 115/115/95 117/117/97 157/157/137 155/155/135
f 118/118/98 116/116/96 156/156/136 158/158/138
f 117/117/97 119/119/99 159/159/139 157/157/137
f 120/120/100 118/118/98 158/158/138 160/160/140
f 119/119/99 121/121/101 161/161/141 159/159/139
f 122/122/102 120/120/100 160/160/140 162/162/142
f 121/121/101 84/84/64 124/124/104 161/161/141
f 85/85/65 122/122/102 162/162/142 125/125/105
f 124/124/104 123/123/103 2/163/143 1/164/144
f 126/126/106 125/125/105 4/165/145 3/166/146
f 123/123/103 127/127/107 5/167/147 2/163/143
f 128/128/108 126/126/106 3/166/146 6/168/148
f 127/127/107 129/129/109 7/169/149 5/167/147
f 130/130/110 128/128/108 6/168/148 8/170/150
f 129/129/109 131/131/111 9/171/151 7/169/149
f 132/132/112 130/130/110 8/170/150 10/172/152
f 131/131/111 133/133/113 11/173/153 9/171/151
f 134/134/114 132/132/112 10/172/152 12/174/154
f 133/133/113 135/135/115 13/175/155 11/173/153
f 136/136/116 134/134/114 12/174/154 14/176/156
f 135/135/115 137/137/117 15/177/157 13/175/155
f 138/138/118 136/136/116 14/176/156 16/178/158
f 137/137/117 139/139/119 17/179/159 15/177/157
f 140/140/120 138/138/118 16/178/158 18/180/160
f 139/139/119 141/141/121 19/181/161 17/179/159
f 142/142/122 140/140/120 18/180/160 20/182/162
f 141/141/121 143/143/123 21/183/163 19/181/161
f 144/144/124 142/142/122 20/182/162 22/184/164
f 143/143/123 145/145/125 23/185/165 21/183/163
f 146/146/126 144/144/124 22/184/164 24/186/166
f 145/145/125 147/147/127 25/187/167 23/185/165
f 148/148/128 146/146/126 24/186/166 26/188/168
f 147/147/127 149/149/129 27/189/169 25/187/167
f 150/150/130 148/148/128 26/188/168 28/190/170
f 149/149/129 151/151/131 29/191/171 27/189/169
f 152/152/132 150/150/130 28/190/170 30/192/172
f 151/151/131 153/153/133 31/193/173 29/191/171
f 154/154/134 152/152/132 30/192/172 32/194/174
f 153/153/133 155/155/135 33/195/175 31/193/173
f 156/156/136 154/154/134 32/194/174 34/196/176
f 155/155/135 157/157/137 35/197/177 33/195/175
f 158/158/138 156/156/136 34/196/176 36/198/178
f 157/157/137 159/159/139 37/199/179 35/197/177
f 160/160/140 158/158/138 36/198/178 38/200/180
f 159/159/139 161/161/141 39/201/181 37/199/179
f 162/162/142 160/160/140 38/200/180 40/202/182
f 161/161/141 124/124/104 1/164/144 39/201/181
f 125/125/105 162/162/142 40/202/182 4/165/145
