{
    "asset" : {
        "generator" : "Khronos glTF Blender I/O v0.9.36",
        "version" : "2.0"
    },
    "scene" : 0,
    "scenes" : [
        {
            "name" : "Scene",
            "nodes" : [
                0
            ]
        }
    ],
    "nodes" : [
        {
            "mesh" : 0,
            "name" : "Cabinet04",
            "rotation" : [
                0.7071068286895752,
                0,
                0,
                0.7071067094802856
            ],
            "translation" : [
                -1.237650990486145,
                4.5970659255981445,
                -5.726186752319336
            ]
        }
    ],
    "materials" : [
        {
            "doubleSided" : true,
            "name" : "Cabinet",
            "pbrMetallicRoughness" : {
                "baseColorFactor" : [
                    0.06968311220407486,
                    0.07507676631212234,
                    0.1491488218307495,
                    1
                ],
                "metallicFactor" : 0,
                "roughnessFactor" : 0.5
            }
        }
    ],
    "meshes" : [
        {
            "name" : "kitchen.009",
            "primitives" : [
                {
                    "attributes" : {
                        "POSITION" : 0,
                        "NORMAL" : 1,
                        "TEXCOORD_0" : 2
                    },
                    "indices" : 3,
                    "material" : 0
                }
            ]
        }
    ],
    "accessors" : [
        {
            "bufferView" : 0,
            "componentType" : 5126,
            "count" : 972,
            "max" : [
                5.938529014587402,
                0.9329686164855957,
                4.3706841468811035
            ],
            "min" : [
                -6.985593795776367,
                -2.686128616333008,
                -1.8748669624328613
            ],
            "type" : "VEC3"
        },
        {
            "bufferView" : 1,
            "componentType" : 5126,
            "count" : 972,
            "type" : "VEC3"
        },
        {
            "bufferView" : 2,
            "componentType" : 5126,
            "count" : 972,
            "type" : "VEC2"
        },
        {
            "bufferView" : 3,
            "componentType" : 5123,
            "count" : 2220,
            "type" : "SCALAR"
        }
    ],
    "bufferViews" : [
        {
            "buffer" : 0,
            "byteLength" : 11664,
            "byteOffset" : 0
        },
        {
            "buffer" : 0,
            "byteLength" : 11664,
            "byteOffset" : 11664
        },
        {
            "buffer" : 0,
            "byteLength" : 7776,
            "byteOffset" : 23328
        },
        {
            "buffer" : 0,
            "byteLength" : 4440,
            "byteOffset" : 31104
        }
    ],
    "buffers" : [
        {
            "byteLength" : 35544,
            "uri" : "data:application/octet-stream;base64,"
        }
    ]
}
