# Blender v2.80 (sub 75) OBJ File: 'borgor.blend'
# www.blender.org
mtllib Tomato.mtl
o Tomato_Sphere.006
v -0.000000 -0.022816 -0.031480
v 0.018503 0.022816 -0.025468
v 0.018503 -0.022816 -0.025468
v 0.029939 0.022816 -0.009728
v 0.029939 -0.022816 -0.009728
v 0.029939 0.022816 0.009728
v 0.029939 -0.022816 0.009728
v 0.018504 0.022816 0.025468
v 0.018503 -0.022816 0.025468
v -0.000000 0.022816 0.031480
v -0.000000 -0.022816 0.031480
v -0.018504 0.022816 0.025468
v -0.018504 -0.022816 0.025468
v 0.000000 -0.028214 0.000000
v -0.000000 0.028214 0.000000
v -0.029939 0.022816 0.009728
v -0.029939 -0.022816 0.009728
v -0.029939 0.022816 -0.009728
v -0.029939 -0.022816 -0.009728
v -0.018504 0.022816 -0.025468
v -0.018504 -0.022816 -0.025468
v -0.000000 0.022816 -0.031480
v 0.303710 0.025511 -0.418021
v 0.491414 0.025511 -0.159670
v 0.491414 0.025511 0.159670
v 0.303710 0.025511 0.418022
v 0.000000 0.025511 0.516703
v -0.303710 0.025511 0.418022
v -0.491414 0.025511 0.159670
v -0.491414 0.025511 -0.159670
v -0.303711 0.025511 -0.418022
v -0.000000 0.025511 -0.516703
v 0.303710 -0.025838 -0.418021
v 0.491414 -0.025838 -0.159670
v 0.491414 -0.025838 0.159670
v 0.303710 -0.025838 0.418021
v -0.000000 -0.025838 0.516703
v -0.303710 -0.025838 0.418022
v -0.491414 -0.025838 0.159670
v -0.491414 -0.025838 -0.159670
v -0.303710 -0.025838 -0.418022
v -0.000000 -0.025838 -0.516703
v 0.259796 0.023213 -0.357579
v 0.420359 0.023213 -0.136583
v 0.420359 0.023213 0.136583
v 0.259796 0.023213 0.357579
v 0.000000 0.023213 0.441992
v -0.259796 0.023213 0.357579
v -0.420359 0.023213 0.136583
v -0.420359 0.023213 -0.136583
v -0.259796 0.023213 -0.357579
v -0.000000 0.023213 -0.441992
v 0.259796 -0.023261 -0.357579
v 0.420359 -0.023261 -0.136583
v 0.420359 -0.023261 0.136583
v 0.259796 -0.023261 0.357579
v -0.000000 -0.023261 0.441992
v -0.259796 -0.023261 0.357579
v -0.420359 -0.023261 0.136583
v -0.420359 -0.023261 -0.136583
v -0.259796 -0.023261 -0.357579
v -0.000000 -0.023261 -0.441992
v -0.000000 -0.007403 -0.031480
v 0.259796 -0.007547 -0.357579
v 0.018503 -0.007403 -0.025468
v 0.018503 0.007387 -0.025468
v 0.420359 -0.007547 -0.136583
v 0.029939 -0.007403 -0.009728
v 0.029939 0.007387 -0.009728
v 0.420359 -0.007547 0.136583
v 0.029939 -0.007403 0.009728
v 0.029939 0.007387 0.009728
v 0.259796 -0.007547 0.357579
v 0.018503 -0.007403 0.025468
v 0.018504 0.007387 0.025468
v -0.000000 -0.007547 0.441992
v -0.000000 -0.007403 0.031480
v -0.000000 0.007387 0.031480
v -0.259796 -0.007547 0.357579
v -0.018504 -0.007403 0.025468
v -0.018504 0.007387 0.025468
v -0.420359 -0.007547 0.136583
v -0.029939 -0.007403 0.009728
v -0.029939 0.007387 0.009728
v -0.420359 -0.007547 -0.136583
v -0.029939 -0.007403 -0.009728
v -0.029939 0.007387 -0.009728
v -0.259796 -0.007547 -0.357579
v -0.018504 -0.007403 -0.025468
v -0.018504 0.007387 -0.025468
v -0.000000 0.007387 -0.031480
v -0.000000 -0.007547 -0.441992
v 0.259796 0.007515 -0.357579
v 0.420359 0.007515 -0.136583
v 0.420359 0.007515 0.136583
v 0.259796 0.007515 0.357579
v 0.000000 0.007515 0.441992
v -0.259796 0.007515 0.357579
v -0.420359 0.007515 0.136583
v -0.420359 0.007515 -0.136583
v -0.259796 0.007515 -0.357579
v -0.000000 0.007515 -0.441992
vt 0.755645 0.244355
vt 0.762005 0.250963
vt 0.756906 0.253439
vt 0.764483 0.731707
vt 0.762008 0.726604
vt 0.766296 0.722312
vt 0.770475 0.730755
vt 0.746302 0.734216
vt 0.747302 0.728634
vt 0.755392 0.732963
vt 0.748773 0.739321
vt 0.753775 0.741998
vt 0.752827 0.747994
vt 0.744480 0.743612
vt 0.764674 0.245963
vt 0.606045 0.094240
vt 0.722851 0.034976
vt 0.724083 0.042377
vt 0.611391 0.099503
vt 0.751391 0.724706
vt 0.763895 0.240348
vt 0.757007 0.723930
vt 0.749285 0.237747
vt 0.746616 0.242747
vt 0.740617 0.241803
vt 0.744987 0.233457
vt 0.759964 0.236264
vt 0.566649 0.340245
vt 0.546381 0.210843
vt 0.553800 0.211958
vt 0.573306 0.336787
vt 0.740310 0.735164
vt 0.754384 0.235270
vt 0.769303 0.237586
vt 0.770673 0.246906
vt 0.759396 0.741222
vt 0.762154 0.746629
vt 0.659107 0.433021
vt 0.662460 0.426310
vt 0.763485 0.737291
vt 0.659643 0.544048
vt 0.663102 0.550707
vt 0.573638 0.639718
vt 0.566938 0.636359
vt 0.747395 0.248361
vt 0.788975 0.523791
vt 0.787859 0.531215
vt 0.757953 0.717939
vt 0.751326 0.252445
vt 0.643397 0.464655
vt 0.788440 0.453733
vt 0.794324 0.488560
vt 0.964816 0.700255
vt 0.957406 0.701488
vt 0.900284 0.588793
vt 0.905552 0.583441
vt 0.147497 0.483430
vt 0.136492 0.505155
vt 0.022396 0.388528
vt 0.046030 0.377897
vt 0.289912 0.504549
vt 0.293805 0.529780
vt 0.420017 0.435417
vt 0.438420 0.453691
vt 0.485410 0.301180
vt 0.511141 0.305424
vt 0.463498 0.153344
vt 0.486867 0.142392
vt 0.361494 0.048072
vt 0.373572 0.025590
vt 0.218369 0.025892
vt 0.214356 0.000849
vt 0.091198 0.095946
vt 0.072702 0.078082
vt 0.026311 0.230177
vt 0.000672 0.225862
vt 0.535397 0.620668
vt 0.643296 0.512767
vt 0.794138 0.488859
vt 0.930270 0.558208
vt 0.999654 0.694370
vt 0.975738 0.845350
vt 0.944085 0.829628
vt 0.867608 0.953468
vt 0.851239 0.922131
vt 0.716503 0.977377
vt 0.721698 0.942376
vt 0.580016 0.907679
vt 0.604991 0.882375
vt 0.511440 0.770575
vt 0.545721 0.765299
vt 0.535345 0.356604
vt 0.511440 0.205677
vt 0.580814 0.069523
vt 0.716967 0.000150
vt 0.867894 0.024054
vt 0.852183 0.055688
vt 0.975946 0.132106
vt 0.944642 0.148464
vt 0.999850 0.283033
vt 0.964910 0.277867
vt 0.930477 0.419186
vt 0.905246 0.394469
vt 0.937364 0.826269
vt 0.757862 0.259435
vt 0.748575 0.257859
vt 0.766303 0.255252
vt 0.753428 0.229274
vt 0.748636 0.719304
vt 0.847775 0.915461
vt 0.768894 0.740043
vt 0.553131 0.764071
vt 0.848830 0.062400
vt 0.741988 0.251124
vt 0.762716 0.230851
vt 0.937984 0.151923
vt 0.741899 0.725881
vt 0.957491 0.276752
vt 0.610299 0.877029
vt 0.899899 0.389206
vt 0.722822 0.934939
vt 0.787207 0.446332
vn 0.1435 0.9841 -0.1043
vn 0.3090 0.0000 0.9511
vn 0.0548 -0.9841 -0.1688
vn -0.8090 0.0000 -0.5878
vn 0.1774 0.9841 0.0000
vn 0.8090 0.0000 -0.5878
vn 0.1435 -0.9841 -0.1043
vn 0.1435 0.9841 0.1043
vn 0.1774 -0.9841 0.0000
vn -1.0000 0.0000 0.0000
vn 0.0548 0.9841 0.1688
vn 0.8090 0.0000 0.5878
vn 0.1435 -0.9841 0.1043
vn -0.3090 0.0000 -0.9511
vn -0.0548 0.9841 0.1688
vn 0.0548 -0.9841 0.1688
vn -0.1435 0.9841 0.1043
vn -0.0548 -0.9841 0.1688
vn -0.1774 0.9841 0.0000
vn -0.8090 0.0000 0.5878
vn -0.1435 -0.9841 0.1043
vn -0.1435 0.9841 -0.1043
vn -0.1774 -0.9841 0.0000
vn -0.0548 0.9841 -0.1688
vn -0.1435 -0.9841 -0.1043
vn -0.0100 0.9995 0.0308
vn -0.0548 -0.9841 -0.1688
vn -0.3090 -0.0000 0.9511
vn 1.0000 -0.0000 -0.0000
vn -0.0293 -0.9993 0.0213
vn -0.0363 -0.9993 0.0000
vn -0.0293 -0.9993 -0.0213
vn -0.0112 -0.9993 -0.0345
vn 0.0112 -0.9993 -0.0345
vn 0.0293 -0.9993 -0.0213
vn 0.0363 -0.9993 -0.0000
vn 0.0293 -0.9993 0.0213
vn 0.0112 -0.9993 0.0345
vn 0.3090 -0.0000 -0.9511
vn 0.0100 0.9995 0.0308
vn 0.0262 0.9995 0.0190
vn 0.0323 0.9995 -0.0000
vn 0.0262 0.9995 -0.0190
vn 0.0100 0.9995 -0.0308
vn -0.0100 0.9995 -0.0308
vn -0.0262 0.9995 -0.0190
vn -0.0323 0.9995 0.0000
vn -0.0262 0.9995 0.0190
vn 0.0548 0.9841 -0.1688
vn -0.0112 -0.9993 0.0345
vn -0.0001 -1.0000 0.0004
vn -0.0003 1.0000 0.0002
vn -0.0003 1.0000 0.0000
vn -0.0003 1.0000 -0.0002
vn -0.0001 1.0000 -0.0003
vn 0.0001 1.0000 -0.0003
vn 0.0003 1.0000 -0.0002
vn 0.0003 1.0000 0.0000
vn 0.0003 1.0000 0.0002
vn 0.0001 1.0000 0.0003
vn -0.0001 1.0000 0.0003
vn 0.0001 -1.0000 0.0004
vn 0.0003 -1.0000 0.0002
vn 0.0004 -1.0000 0.0000
vn 0.0003 -1.0000 -0.0002
vn 0.0001 -1.0000 -0.0004
vn -0.0001 -1.0000 -0.0004
vn -0.0003 -1.0000 -0.0002
vn -0.0004 -1.0000 0.0000
vn -0.0003 -1.0000 0.0002
usemtl Tomato
s off
f 15/1/1 4/2/1 2/3/1
f 11/4/2 9/5/2 74/6/2 77/7/2
f 1/8/3 3/9/3 14/10/3
f 21/11/4 19/12/4 86/13/4 89/14/4
f 15/1/5 6/15/5 4/2/5
f 49/16/6 48/17/6 98/18/6 99/19/6
f 3/9/7 5/20/7 14/10/7
f 15/1/8 8/21/8 6/15/8
f 5/20/9 7/22/9 14/10/9
f 16/23/10 18/24/10 87/25/10 84/26/10
f 15/1/11 10/27/11 8/21/11
f 51/28/12 50/29/12 100/30/12 101/31/12
f 7/22/13 9/5/13 14/10/13
f 21/11/14 89/14/14 63/32/14 1/8/14
f 15/1/15 12/33/15 10/27/15
f 6/15/12 8/21/12 75/34/12 72/35/12
f 9/5/16 11/4/16 14/10/16
f 17/36/10 83/37/10 86/13/10 19/12/10
f 15/1/17 16/23/17 12/33/17
f 52/38/2 51/28/2 101/31/2 102/39/2
f 11/4/18 13/40/18 14/10/18
f 15/1/19 18/24/19 16/23/19
f 54/41/20 67/42/20 64/43/20 53/44/20
f 13/40/21 17/36/21 14/10/21
f 15/1/22 20/45/22 18/24/22
f 55/46/10 70/47/10 67/42/10 54/41/10
f 17/36/23 19/12/23 14/10/23
f 7/22/12 71/48/12 74/6/12 9/5/12
f 15/1/24 22/49/24 20/45/24
f 19/12/25 21/11/25 14/10/25
f 32/50/26 52/38/26 43/51/26 23/52/26
f 21/11/27 1/8/27 14/10/27
f 57/53/14 76/54/14 73/55/14 56/56/14
f 41/57/14 31/58/14 32/59/14 42/60/14
f 40/61/4 30/62/4 31/58/4 41/57/4
f 39/63/10 29/64/10 30/62/10 40/61/10
f 38/65/20 28/66/20 29/64/20 39/63/20
f 37/67/28 27/68/28 28/66/28 38/65/28
f 36/69/2 26/70/2 27/68/2 37/67/2
f 35/71/12 25/72/12 26/70/12 36/69/12
f 34/73/29 24/74/29 25/72/29 35/71/29
f 33/75/6 23/76/6 24/74/6 34/73/6
f 33/77/30 34/78/30 54/41/30 53/44/30
f 34/78/31 35/79/31 55/46/31 54/41/31
f 35/79/32 36/80/32 56/56/32 55/46/32
f 36/80/33 37/81/33 57/53/33 56/56/33
f 37/81/34 38/82/34 58/83/34 57/53/34
f 38/82/35 39/84/35 59/85/35 58/83/35
f 39/84/36 40/86/36 60/87/36 59/85/36
f 40/86/37 41/88/37 61/89/37 60/87/37
f 41/88/38 42/90/38 62/91/38 61/89/38
f 42/60/39 32/59/39 23/76/39 33/75/39
f 31/92/40 51/28/40 52/38/40 32/50/40
f 30/93/41 50/29/41 51/28/41 31/92/41
f 29/94/42 49/16/42 50/29/42 30/93/42
f 28/95/43 48/17/43 49/16/43 29/94/43
f 27/96/44 47/97/44 48/17/44 28/95/44
f 26/98/45 46/99/45 47/97/45 27/96/45
f 25/100/46 45/101/46 46/99/46 26/98/46
f 24/102/47 44/103/47 45/101/47 25/100/47
f 23/52/48 43/51/48 44/103/48 24/102/48
f 56/56/4 73/55/4 70/47/4 55/46/4
f 15/1/49 2/3/49 22/49/49
f 58/83/39 79/104/39 76/54/39 57/53/39
f 2/3/39 66/105/39 91/106/39 22/49/39
f 4/2/29 6/15/29 72/35/29 69/107/29
f 12/33/20 16/23/20 84/26/20 81/108/20
f 42/90/50 33/77/50 53/44/50 62/91/50
f 5/20/29 68/109/29 71/48/29 7/22/29
f 59/85/6 82/110/6 79/104/6 58/83/6
f 13/40/20 80/111/20 83/37/20 17/36/20
f 53/44/28 64/43/28 92/112/28 62/91/28
f 48/17/39 47/97/39 97/113/39 98/18/39
f 18/24/4 20/45/4 90/114/4 87/25/4
f 8/21/2 10/27/2 78/115/2 75/34/2
f 47/97/14 46/99/14 96/116/14 97/113/14
f 3/9/39 1/8/39 63/32/39 65/117/39
f 46/99/4 45/101/4 95/118/4 96/116/4
f 13/40/28 11/4/28 77/7/28 80/111/28
f 61/89/2 62/91/2 92/112/2 88/119/2
f 45/101/10 44/103/10 94/120/10 95/118/10
f 20/45/14 22/49/14 91/106/14 90/114/14
f 10/27/28 12/33/28 81/108/28 78/115/28
f 5/20/6 3/9/6 65/117/6 68/109/6
f 60/87/12 61/89/12 88/119/12 85/121/12
f 44/103/20 43/51/20 93/122/20 94/120/20
f 2/3/6 4/2/6 69/107/6 66/105/6
f 59/85/29 60/87/29 85/121/29 82/110/29
f 43/51/28 52/38/28 102/39/28 93/122/28
f 50/29/29 49/16/29 99/19/29 100/30/29
usemtl TomatoLight
f 63/32/51 92/112/51 64/43/51 65/117/51
f 66/105/52 69/107/52 94/120/52 93/122/52
f 69/107/53 72/35/53 95/118/53 94/120/53
f 72/35/54 75/34/54 96/116/54 95/118/54
f 75/34/55 78/115/55 97/113/55 96/116/55
f 78/115/56 81/108/56 98/18/56 97/113/56
f 81/108/57 84/26/57 99/19/57 98/18/57
f 84/26/58 87/25/58 100/30/58 99/19/58
f 87/25/59 90/114/59 101/31/59 100/30/59
f 90/114/60 91/106/60 102/39/60 101/31/60
f 66/105/61 93/122/61 102/39/61 91/106/61
f 89/14/62 88/119/62 92/112/62 63/32/62
f 86/13/63 85/121/63 88/119/63 89/14/63
f 83/37/64 82/110/64 85/121/64 86/13/64
f 80/111/65 79/104/65 82/110/65 83/37/65
f 77/7/66 76/54/66 79/104/66 80/111/66
f 74/6/67 73/55/67 76/54/67 77/7/67
f 71/48/68 70/47/68 73/55/68 74/6/68
f 68/109/69 67/42/69 70/47/69 71/48/69
f 65/117/70 64/43/70 67/42/70 68/109/70
