# Blender v2.80 (sub 75) OBJ File: 'borgor.blend'
# www.blender.org
mtllib Tomato.mtl
o Tomato_Sphere.006
v -0.000000 -0.022816 -0.031480
v 0.009728 0.022816 -0.029939
v 0.009728 -0.022816 -0.029939
v 0.018503 0.022816 -0.025468
v 0.018503 -0.022816 -0.025468
v 0.025468 0.022816 -0.018504
v 0.025468 -0.022816 -0.018504
v 0.029939 0.022816 -0.009728
v 0.029939 -0.022816 -0.009728
v 0.031480 0.022816 0.000000
v 0.031480 -0.022816 0.000000
v 0.029939 0.022816 0.009728
v 0.029939 -0.022816 0.009728
v 0.025468 0.022816 0.018504
v 0.025468 -0.022816 0.018504
v 0.018504 0.022816 0.025468
v 0.018503 -0.022816 0.025468
v 0.009728 0.022816 0.029939
v 0.009728 -0.022816 0.029939
v -0.000000 0.022816 0.031480
v -0.000000 -0.022816 0.031480
v -0.009728 0.022816 0.029939
v -0.009728 -0.022816 0.029939
v -0.018504 0.022816 0.025468
v -0.018504 -0.022816 0.025468
v 0.000000 -0.028214 0.000000
v -0.025468 0.022816 0.018504
v -0.025468 -0.022816 0.018504
v -0.000000 0.028214 0.000000
v -0.029939 0.022816 0.009728
v -0.029939 -0.022816 0.009728
v -0.031480 0.022816 0.000000
v -0.031480 -0.022816 0.000000
v -0.029939 0.022816 -0.009728
v -0.029939 -0.022816 -0.009728
v -0.025468 0.022816 -0.018504
v -0.025468 -0.022816 -0.018504
v -0.018504 0.022816 -0.025468
v -0.018504 -0.022816 -0.025468
v -0.009728 0.022816 -0.029939
v -0.009728 -0.022816 -0.029939
v -0.000000 0.022816 -0.031480
v 0.159670 0.025511 -0.491414
v 0.303710 0.025511 -0.418021
v 0.418021 0.025511 -0.303710
v 0.491414 0.025511 -0.159670
v 0.516703 0.025511 0.000000
v 0.491414 0.025511 0.159670
v 0.418021 0.025511 0.303710
v 0.303710 0.025511 0.418022
v 0.159670 0.025511 0.491414
v 0.000000 0.025511 0.516703
v -0.159670 0.025511 0.491414
v -0.303710 0.025511 0.418022
v -0.418022 0.025511 0.303710
v -0.491414 0.025511 0.159670
v -0.516703 0.025511 0.000000
v -0.491414 0.025511 -0.159670
v -0.418022 0.025511 -0.303710
v -0.303711 0.025511 -0.418022
v -0.159670 0.025511 -0.491414
v -0.000000 0.025511 -0.516703
v 0.159670 -0.025838 -0.491414
v 0.303710 -0.025838 -0.418021
v 0.418021 -0.025838 -0.303710
v 0.491414 -0.025838 -0.159670
v 0.516703 -0.025838 0.000000
v 0.491414 -0.025838 0.159670
v 0.418021 -0.025838 0.303710
v 0.303710 -0.025838 0.418021
v 0.159670 -0.025838 0.491414
v -0.000000 -0.025838 0.516703
v -0.159670 -0.025838 0.491414
v -0.303710 -0.025838 0.418022
v -0.418022 -0.025838 0.303710
v -0.491414 -0.025838 0.159670
v -0.516703 -0.025838 0.000000
v -0.491414 -0.025838 -0.159670
v -0.418022 -0.025838 -0.303710
v -0.303710 -0.025838 -0.418022
v -0.159670 -0.025838 -0.491414
v -0.000000 -0.025838 -0.516703
v 0.136583 0.023213 -0.420359
v 0.259796 0.023213 -0.357579
v 0.357579 0.023213 -0.259796
v 0.420359 0.023213 -0.136583
v 0.441992 0.023213 0.000000
v 0.420359 0.023213 0.136583
v 0.357579 0.023213 0.259796
v 0.259796 0.023213 0.357579
v 0.136583 0.023213 0.420359
v 0.000000 0.023213 0.441992
v -0.136583 0.023213 0.420359
v -0.259796 0.023213 0.357579
v -0.357579 0.023213 0.259796
v -0.420359 0.023213 0.136583
v -0.441992 0.023213 0.000000
v -0.420359 0.023213 -0.136583
v -0.357579 0.023213 -0.259796
v -0.259796 0.023213 -0.357579
v -0.136583 0.023213 -0.420359
v -0.000000 0.023213 -0.441992
v 0.136583 -0.023261 -0.420359
v 0.259796 -0.023261 -0.357579
v 0.357579 -0.023261 -0.259796
v 0.420359 -0.023261 -0.136583
v 0.441992 -0.023261 0.000000
v 0.420359 -0.023261 0.136583
v 0.357579 -0.023261 0.259796
v 0.259796 -0.023261 0.357579
v 0.136583 -0.023261 0.420359
v -0.000000 -0.023261 0.441992
v -0.136583 -0.023261 0.420359
v -0.259796 -0.023261 0.357579
v -0.357579 -0.023261 0.259796
v -0.420359 -0.023261 0.136583
v -0.441992 -0.023261 0.000000
v -0.420359 -0.023261 -0.136583
v -0.357579 -0.023261 -0.259796
v -0.259796 -0.023261 -0.357579
v -0.136583 -0.023261 -0.420359
v -0.000000 -0.023261 -0.441992
v 0.136583 -0.007547 -0.420359
v 0.009728 -0.007403 -0.029939
v -0.000000 -0.007403 -0.031480
v 0.259796 -0.007547 -0.357579
v 0.018503 -0.007403 -0.025468
v 0.009728 0.007387 -0.029939
v 0.018503 0.007387 -0.025468
v 0.357579 -0.007547 -0.259796
v 0.025468 -0.007403 -0.018504
v 0.025468 0.007387 -0.018504
v 0.420359 -0.007547 -0.136583
v 0.029939 -0.007403 -0.009728
v 0.029939 0.007387 -0.009728
v 0.441992 -0.007547 0.000000
v 0.031480 -0.007403 0.000000
v 0.031480 0.007387 0.000000
v 0.420359 -0.007547 0.136583
v 0.029939 -0.007403 0.009728
v 0.029939 0.007387 0.009728
v 0.357579 -0.007547 0.259796
v 0.025468 -0.007403 0.018504
v 0.025468 0.007387 0.018504
v 0.259796 -0.007547 0.357579
v 0.018503 -0.007403 0.025468
v 0.018504 0.007387 0.025468
v 0.136583 -0.007547 0.420359
v 0.009728 -0.007403 0.029939
v 0.009728 0.007387 0.029939
v -0.000000 -0.007547 0.441992
v -0.000000 -0.007403 0.031480
v -0.000000 0.007387 0.031480
v -0.136583 -0.007547 0.420359
v -0.009728 -0.007403 0.029939
v -0.009728 0.007387 0.029939
v -0.259796 -0.007547 0.357579
v -0.018504 -0.007403 0.025468
v -0.018504 0.007387 0.025468
v -0.357579 -0.007547 0.259796
v -0.025468 -0.007403 0.018504
v -0.025468 0.007387 0.018504
v -0.420359 -0.007547 0.136583
v -0.029939 -0.007403 0.009728
v -0.029939 0.007387 0.009728
v -0.441992 -0.007547 0.000000
v -0.031480 -0.007403 0.000000
v -0.031480 0.007387 0.000000
v -0.420359 -0.007547 -0.136583
v -0.029939 -0.007403 -0.009728
v -0.029939 0.007387 -0.009728
v -0.357579 -0.007547 -0.259796
v -0.025468 -0.007403 -0.018504
v -0.025468 0.007387 -0.018504
v -0.259796 -0.007547 -0.357579
v -0.018504 -0.007403 -0.025468
v -0.018504 0.007387 -0.025468
v -0.136583 -0.007547 -0.420359
v -0.009728 -0.007403 -0.029939
v -0.009728 0.007387 -0.029939
v -0.000000 0.007387 -0.031480
v -0.000000 -0.007547 -0.441992
v 0.136583 0.007515 -0.420359
v 0.259796 0.007515 -0.357579
v 0.357579 0.007515 -0.259796
v 0.420359 0.007515 -0.136583
v 0.441992 0.007515 0.000000
v 0.420359 0.007515 0.136583
v 0.357579 0.007515 0.259796
v 0.259796 0.007515 0.357579
v 0.136583 0.007515 0.420359
v 0.000000 0.007515 0.441992
v -0.136583 0.007515 0.420359
v -0.259796 0.007515 0.357579
v -0.357579 0.007515 0.259796
v -0.420359 0.007515 0.136583
v -0.441992 0.007515 0.000000
v -0.420359 0.007515 -0.136583
v -0.357579 0.007515 -0.259796
v -0.259796 0.007515 -0.357579
v -0.136583 0.007515 -0.420359
v -0.000000 0.007515 -0.441992
vt 0.755392 0.732963
vt 0.746302 0.734216
vt 0.746360 0.731346
vt 0.751062 0.741056
vt 0.753775 0.741998
vt 0.752827 0.747994
vt 0.748306 0.746465
vt 0.751326 0.252445
vt 0.755645 0.244355
vt 0.754037 0.253384
vt 0.747302 0.728634
vt 0.659755 0.055358
vt 0.722851 0.034976
vt 0.724083 0.042377
vt 0.663213 0.062016
vt 0.756906 0.253439
vt 0.749035 0.726347
vt 0.545721 0.765299
vt 0.546259 0.699178
vt 0.553656 0.700322
vt 0.553131 0.764071
vt 0.759652 0.252605
vt 0.751391 0.724706
vt 0.606045 0.094240
vt 0.611391 0.099503
vt 0.762005 0.250963
vt 0.754138 0.723874
vt 0.566938 0.636359
vt 0.573638 0.639718
vt 0.763736 0.248674
vt 0.757007 0.723930
vt 0.764729 0.243094
vt 0.763895 0.240348
vt 0.769303 0.237586
vt 0.770726 0.242138
vt 0.764674 0.245963
vt 0.759719 0.724871
vt 0.747555 0.240035
vt 0.746616 0.242747
vt 0.740617 0.241803
vt 0.742141 0.237284
vt 0.762008 0.726604
vt 0.566979 0.147816
vt 0.573690 0.151170
vt 0.763650 0.728960
vt 0.605979 0.582886
vt 0.611322 0.588150
vt 0.762253 0.237995
vt 0.764483 0.731707
vt 0.762471 0.719465
vt 0.766296 0.722312
vt 0.759964 0.236264
vt 0.764426 0.734578
vt 0.756647 0.742055
vt 0.757599 0.748050
vt 0.757253 0.235325
vt 0.763485 0.737291
vt 0.546381 0.210843
vt 0.553800 0.211958
vt 0.754384 0.235270
vt 0.761752 0.739580
vt 0.747133 0.736964
vt 0.741724 0.739717
vt 0.740310 0.735164
vt 0.751639 0.236105
vt 0.759396 0.741222
vt 0.659643 0.544048
vt 0.663102 0.550707
vt 0.749285 0.237747
vt 0.546267 0.277149
vt 0.553668 0.275917
vt 0.722699 0.523680
vt 0.723931 0.531084
vt 0.770673 0.246906
vt 0.746561 0.245616
vt 0.748773 0.739321
vt 0.744987 0.233457
vt 0.747395 0.248361
vt 0.566649 0.340245
vt 0.573306 0.336787
vt 0.749037 0.250715
vt 0.788975 0.523791
vt 0.787859 0.531215
vt 0.088447 0.439415
vt 0.069211 0.458073
vt 0.022396 0.388528
vt 0.046030 0.377897
vt 0.147497 0.483430
vt 0.136492 0.505155
vt 0.216420 0.505290
vt 0.212273 0.530054
vt 0.289912 0.504549
vt 0.293805 0.529780
vt 0.360242 0.480546
vt 0.371961 0.503498
vt 0.420017 0.435417
vt 0.438420 0.453691
vt 0.463128 0.373597
vt 0.486361 0.385363
vt 0.485410 0.301180
vt 0.511141 0.305424
vt 0.485385 0.225316
vt 0.511141 0.221847
vt 0.463498 0.153344
vt 0.486867 0.142392
vt 0.420832 0.092266
vt 0.439507 0.074673
vt 0.361494 0.048072
vt 0.373572 0.025590
vt 0.291566 0.025196
vt 0.295827 0.000150
vt 0.218369 0.025892
vt 0.214356 0.000849
vt 0.149299 0.050257
vt 0.137400 0.027763
vt 0.091198 0.095946
vt 0.072702 0.078082
vt 0.048565 0.157840
vt 0.025400 0.146193
vt 0.026311 0.230177
vt 0.000672 0.225862
vt 0.025844 0.306060
vt 0.000150 0.309129
vt 0.511440 0.770575
vt 0.511556 0.693959
vt 0.535397 0.620668
vt 0.580784 0.558197
vt 0.643296 0.512767
vt 0.716815 0.488868
vt 0.794138 0.488859
vt 0.867691 0.512749
vt 0.851983 0.544382
vt 0.930270 0.558208
vt 0.905552 0.583441
vt 0.975744 0.620789
vt 0.944434 0.637150
vt 0.999654 0.694370
vt 0.964816 0.700255
vt 0.999654 0.771749
vt 0.964698 0.766578
vt 0.975738 0.845350
vt 0.944085 0.829628
vt 0.930240 0.907968
vt 0.904992 0.883230
vt 0.867608 0.953468
vt 0.851239 0.922131
vt 0.793964 0.977391
vt 0.788081 0.942518
vt 0.716503 0.977377
vt 0.721698 0.942376
vt 0.642789 0.953391
vt 0.658592 0.921680
vt 0.580016 0.907679
vt 0.604991 0.882375
vt 0.534356 0.844355
vt 0.566367 0.828287
vt 0.580814 0.419186
vt 0.605531 0.393955
vt 0.659107 0.433021
vt 0.643397 0.464655
vt 0.535345 0.356604
vt 0.511440 0.283033
vt 0.511440 0.205677
vt 0.535345 0.132106
vt 0.580814 0.069523
vt 0.643396 0.024054
vt 0.716967 0.000150
vt 0.794323 0.000150
vt 0.789157 0.035090
vt 0.867894 0.024054
vt 0.852183 0.055688
vt 0.930477 0.069523
vt 0.905760 0.094754
vt 0.975946 0.132106
vt 0.944642 0.148464
vt 0.999850 0.205676
vt 0.965024 0.211560
vt 0.999850 0.283033
vt 0.964910 0.277867
vt 0.975946 0.356603
vt 0.944312 0.340893
vt 0.930477 0.419186
vt 0.905246 0.394469
vt 0.867894 0.464655
vt 0.851536 0.433351
vt 0.794324 0.488560
vt 0.788440 0.453733
vt 0.716967 0.488560
vt 0.722133 0.453619
vt 0.757953 0.717939
vt 0.762154 0.746629
vt 0.610794 0.388608
vt 0.848627 0.551098
vt 0.662460 0.426310
vt 0.900284 0.588793
vt 0.769149 0.251425
vt 0.748876 0.230697
vt 0.937769 0.640612
vt 0.753186 0.717884
vt 0.766045 0.743870
vt 0.957406 0.701488
vt 0.957269 0.765461
vt 0.766303 0.255252
vt 0.937364 0.826269
vt 0.748636 0.719304
vt 0.753428 0.229274
vt 0.753094 0.259383
vt 0.748575 0.257859
vt 0.899637 0.877957
vt 0.768894 0.740043
vt 0.723248 0.446200
vt 0.787207 0.446332
vt 0.757862 0.259435
vt 0.762414 0.258012
vt 0.848077 0.426694
vt 0.899899 0.389206
vt 0.937600 0.337540
vt 0.957491 0.276752
vt 0.957623 0.212793
vt 0.937984 0.151923
vt 0.766542 0.233697
vt 0.900497 0.100101
vt 0.848830 0.062400
vt 0.762716 0.230851
vt 0.758197 0.229327
vt 0.788042 0.042509
vt 0.740564 0.246572
vt 0.741988 0.251124
vt 0.744748 0.255013
vt 0.573030 0.824836
vt 0.661969 0.914954
vt 0.610299 0.877029
vt 0.744480 0.743612
vt 0.786849 0.935101
vt 0.722822 0.934939
vt 0.847775 0.915461
vt 0.770420 0.735524
vt 0.769054 0.726203
vt 0.770475 0.730755
vt 0.744747 0.722059
vt 0.740370 0.730395
vt 0.741899 0.725881
vn 0.0268 -0.9853 -0.1689
vn -0.8910 0.0000 -0.4540
vn 0.0268 0.9853 -0.1689
vn 0.0777 -0.9853 -0.1524
vn 0.7071 0.0000 -0.7071
vn 0.0777 0.9853 -0.1524
vn 0.1210 -0.9853 -0.1210
vn -0.1564 0.0000 0.9877
vn 0.1210 0.9853 -0.1210
vn 0.1524 -0.9853 -0.0777
vn 0.8910 0.0000 -0.4540
vn 0.1524 0.9853 -0.0777
vn 0.1689 -0.9853 -0.0268
vn -0.4540 0.0000 0.8910
vn 0.1689 0.9853 -0.0268
vn 0.1689 -0.9853 0.0268
vn 0.7071 0.0000 0.7071
vn 0.1689 0.9853 0.0268
vn 0.1524 -0.9853 0.0777
vn -0.9877 0.0000 -0.1564
vn 0.1524 0.9853 0.0777
vn 0.1210 -0.9853 0.1210
vn 0.9877 0.0000 -0.1564
vn 0.1210 0.9853 0.1210
vn 0.0777 -0.9853 0.1524
vn -0.7071 0.0000 0.7071
vn 0.0777 0.9853 0.1524
vn 0.0268 -0.9853 0.1689
vn 0.0268 0.9853 0.1689
vn -0.0268 -0.9853 0.1689
vn -0.0268 0.9853 0.1689
vn -0.0777 -0.9853 0.1524
vn 0.9877 0.0000 0.1564
vn -0.0777 0.9853 0.1524
vn -0.1210 -0.9853 0.1210
vn -0.1564 0.0000 -0.9877
vn -0.1210 0.9853 0.1210
vn -0.1524 -0.9853 0.0777
vn -0.8910 0.0000 0.4540
vn -0.1524 0.9853 0.0777
vn -0.1689 -0.9853 0.0268
vn 0.8910 0.0000 0.4540
vn -0.1689 0.9853 0.0268
vn -0.1689 -0.9853 -0.0268
vn -0.9877 0.0000 0.1564
vn -0.1689 0.9853 -0.0268
vn -0.1524 -0.9853 -0.0777
vn -0.1524 0.9853 -0.0777
vn -0.1210 -0.9853 -0.1210
vn -0.1210 0.9853 -0.1210
vn -0.0777 -0.9853 -0.1524
vn -0.0777 0.9853 -0.1524
vn -0.0268 -0.9853 -0.1689
vn -0.0268 0.9853 -0.1689
vn -0.4540 -0.0000 -0.8910
vn -0.7071 -0.0000 -0.7071
vn 0.1564 -0.0000 0.9877
vn 0.4540 -0.0000 0.8910
vn 0.4540 -0.0000 -0.8910
vn 0.1564 -0.0000 -0.9877
vn -0.0055 -0.9994 0.0345
vn -0.0158 -0.9994 0.0311
vn -0.0247 -0.9994 0.0247
vn -0.0311 -0.9994 0.0158
vn -0.0345 -0.9994 0.0055
vn -0.0345 -0.9994 -0.0055
vn -0.0311 -0.9994 -0.0158
vn -0.0247 -0.9994 -0.0247
vn -0.0158 -0.9994 -0.0311
vn -0.0055 -0.9994 -0.0345
vn 0.0055 -0.9994 -0.0345
vn 0.0158 -0.9994 -0.0311
vn 0.0247 -0.9994 -0.0247
vn 0.0311 -0.9994 -0.0158
vn 0.0345 -0.9994 -0.0055
vn 0.0345 -0.9994 0.0055
vn 0.0311 -0.9994 0.0158
vn 0.0247 -0.9994 0.0247
vn 0.0158 -0.9994 0.0311
vn 0.0055 -0.9994 0.0345
vn 0.0049 0.9995 0.0308
vn 0.0141 0.9995 0.0277
vn 0.0220 0.9995 0.0220
vn 0.0277 0.9995 0.0141
vn 0.0308 0.9995 0.0049
vn 0.0308 0.9995 -0.0049
vn 0.0277 0.9995 -0.0141
vn 0.0220 0.9995 -0.0220
vn 0.0141 0.9995 -0.0277
vn 0.0049 0.9995 -0.0308
vn -0.0049 0.9995 -0.0308
vn -0.0141 0.9995 -0.0277
vn -0.0220 0.9995 -0.0220
vn -0.0277 0.9995 -0.0141
vn -0.0308 0.9995 -0.0049
vn -0.0308 0.9995 0.0049
vn -0.0277 0.9995 0.0141
vn -0.0220 0.9995 0.0220
vn -0.0141 0.9995 0.0277
vn -0.0049 0.9995 0.0308
vn -0.0000 1.0000 0.0003
vn -0.0002 1.0000 0.0002
vn -0.0003 1.0000 0.0000
vn -0.0003 1.0000 -0.0001
vn -0.0001 1.0000 -0.0003
vn 0.0000 1.0000 -0.0003
vn 0.0002 1.0000 -0.0002
vn 0.0003 1.0000 -0.0000
vn 0.0003 1.0000 0.0001
vn 0.0001 1.0000 0.0003
vn 0.0001 -1.0000 0.0004
vn 0.0003 -1.0000 0.0003
vn 0.0004 -1.0000 0.0001
vn 0.0003 -1.0000 -0.0002
vn 0.0002 -1.0000 -0.0003
vn -0.0001 -1.0000 -0.0004
vn -0.0003 -1.0000 -0.0003
vn -0.0004 -1.0000 -0.0001
vn -0.0003 -1.0000 0.0002
vn -0.0002 -1.0000 0.0003
vn -0.0001 1.0000 0.0003
vn -0.0003 1.0000 0.0001
vn -0.0002 1.0000 -0.0002
vn 0.0001 1.0000 -0.0003
vn 0.0003 1.0000 -0.0001
vn 0.0002 1.0000 0.0002
vn 0.0002 -1.0000 0.0003
vn 0.0003 -1.0000 0.0002
vn 0.0004 -1.0000 -0.0001
vn 0.0003 -1.0000 -0.0003
vn 0.0001 -1.0000 -0.0004
vn -0.0002 -1.0000 -0.0003
vn -0.0003 -1.0000 -0.0002
vn -0.0004 -1.0000 0.0001
vn -0.0003 -1.0000 0.0003
vn -0.0001 -1.0000 0.0004
usemtl Tomato
s off
f 26/1/1 1/2/1 3/3/1
f 37/4/2 35/5/2 170/6/2 173/7/2
f 42/8/3 29/9/3 2/10/3
f 26/1/4 3/3/4 5/11/4
f 95/12/5 94/13/5 194/14/5 195/15/5
f 2/10/6 29/9/6 4/16/6
f 26/1/7 5/11/7 7/17/7
f 122/18/8 103/19/8 123/20/8 182/21/8
f 4/16/9 29/9/9 6/22/9
f 26/1/10 7/17/10 9/23/10
f 96/24/11 95/12/11 195/15/11 196/25/11
f 6/22/12 29/9/12 8/26/12
f 26/1/13 9/23/13 11/27/13
f 103/19/14 104/28/14 126/29/14 123/20/14
f 8/26/15 29/9/15 10/30/15
f 26/1/16 11/27/16 13/31/16
f 14/32/17 16/33/17 147/34/17 144/35/17
f 10/30/18 29/9/18 12/36/18
f 26/1/19 13/31/19 15/37/19
f 32/38/20 34/39/20 171/40/20 168/41/20
f 12/36/21 29/9/21 14/32/21
f 26/1/22 15/37/22 17/42/22
f 97/43/23 96/24/23 196/25/23 197/44/23
f 14/32/24 29/9/24 16/33/24
f 26/1/25 17/42/25 19/45/25
f 104/28/26 105/46/26 130/47/26 126/29/26
f 16/33/27 29/9/27 18/48/27
f 26/1/28 19/45/28 21/49/28
f 17/42/17 15/37/17 143/50/17 146/51/17
f 18/48/29 29/9/29 20/52/29
f 26/1/30 21/49/30 23/53/30
f 35/5/20 33/54/20 167/55/20 170/6/20
f 20/52/31 29/9/31 22/56/31
f 26/1/32 23/53/32 25/57/32
f 98/58/33 97/43/33 197/44/33 198/59/33
f 22/56/34 29/9/34 24/60/34
f 26/1/35 25/57/35 28/61/35
f 1/2/36 41/62/36 179/63/36 125/64/36
f 24/60/37 29/9/37 27/65/37
f 26/1/38 28/61/38 31/66/38
f 105/46/39 106/67/39 133/68/39 130/47/39
f 27/65/40 29/9/40 30/69/40
f 26/1/41 31/66/41 33/54/41
f 99/70/42 98/58/42 198/59/42 199/71/42
f 30/69/43 29/9/43 32/38/43
f 26/1/44 33/54/44 35/5/44
f 106/67/45 107/72/45 136/73/45 133/68/45
f 32/38/46 29/9/46 34/39/46
f 26/1/47 35/5/47 37/4/47
f 12/36/42 14/32/42 144/35/42 141/74/42
f 34/39/48 29/9/48 36/75/48
f 26/1/49 37/4/49 39/76/49
f 30/69/45 32/38/45 168/41/45 165/77/45
f 36/75/50 29/9/50 38/78/50
f 26/1/51 39/76/51 41/62/51
f 100/79/17 99/70/17 199/71/17 200/80/17
f 38/78/52 29/9/52 40/81/52
f 26/1/53 41/62/53 1/2/53
f 107/72/20 108/82/20 139/83/20 136/73/20
f 40/81/54 29/9/54 42/8/54
f 81/84/36 61/85/36 62/86/36 82/87/36
f 80/88/55 60/89/55 61/85/55 81/84/55
f 79/90/56 59/91/56 60/89/56 80/88/56
f 78/92/2 58/93/2 59/91/2 79/90/2
f 77/94/20 57/95/20 58/93/20 78/92/20
f 76/96/45 56/97/45 57/95/45 77/94/45
f 75/98/39 55/99/39 56/97/39 76/96/39
f 74/100/26 54/101/26 55/99/26 75/98/26
f 73/102/14 53/103/14 54/101/14 74/100/14
f 72/104/8 52/105/8 53/103/8 73/102/8
f 71/106/57 51/107/57 52/105/57 72/104/57
f 70/108/58 50/109/58 51/107/58 71/106/58
f 69/110/17 49/111/17 50/109/17 70/108/17
f 68/112/42 48/113/42 49/111/42 69/110/42
f 67/114/33 47/115/33 48/113/33 68/112/33
f 66/116/23 46/117/23 47/115/23 67/114/23
f 65/118/11 45/119/11 46/117/11 66/116/11
f 64/120/5 44/121/5 45/119/5 65/118/5
f 63/122/59 43/123/59 44/121/59 64/120/59
f 82/87/60 62/86/60 43/123/60 63/122/60
f 122/18/61 82/124/61 63/125/61 103/19/61
f 103/19/62 63/125/62 64/126/62 104/28/62
f 104/28/63 64/126/63 65/127/63 105/46/63
f 105/46/64 65/127/64 66/128/64 106/67/64
f 106/67/65 66/128/65 67/129/65 107/72/65
f 107/72/66 67/129/66 68/130/66 108/82/66
f 108/82/67 68/130/67 69/131/67 109/132/67
f 109/132/68 69/131/68 70/133/68 110/134/68
f 110/134/69 70/133/69 71/135/69 111/136/69
f 111/136/70 71/135/70 72/137/70 112/138/70
f 112/138/71 72/137/71 73/139/71 113/140/71
f 113/140/72 73/139/72 74/141/72 114/142/72
f 114/142/73 74/141/73 75/143/73 115/144/73
f 115/144/74 75/143/74 76/145/74 116/146/74
f 116/146/75 76/145/75 77/147/75 117/148/75
f 117/148/76 77/147/76 78/149/76 118/150/76
f 118/150/77 78/149/77 79/151/77 119/152/77
f 119/152/78 79/151/78 80/153/78 120/154/78
f 120/154/79 80/153/79 81/155/79 121/156/79
f 121/156/80 81/155/80 82/124/80 122/18/80
f 61/157/81 101/158/81 102/159/81 62/160/81
f 60/161/82 100/79/82 101/158/82 61/157/82
f 59/162/83 99/70/83 100/79/83 60/161/83
f 58/163/84 98/58/84 99/70/84 59/162/84
f 57/164/85 97/43/85 98/58/85 58/163/85
f 56/165/86 96/24/86 97/43/86 57/164/86
f 55/166/87 95/12/87 96/24/87 56/165/87
f 54/167/88 94/13/88 95/12/88 55/166/88
f 53/168/89 93/169/89 94/13/89 54/167/89
f 52/170/90 92/171/90 93/169/90 53/168/90
f 51/172/91 91/173/91 92/171/91 52/170/91
f 50/174/92 90/175/92 91/173/92 51/172/92
f 49/176/93 89/177/93 90/175/93 50/174/93
f 48/178/94 88/179/94 89/177/94 49/176/94
f 47/180/95 87/181/95 88/179/95 48/178/95
f 46/182/96 86/183/96 87/181/96 47/180/96
f 45/184/97 85/185/97 86/183/97 46/182/97
f 44/186/98 84/187/98 85/185/98 45/184/98
f 43/188/99 83/189/99 84/187/99 44/186/99
f 62/160/100 102/159/100 83/189/100 43/188/100
f 15/37/42 13/31/42 140/190/42 143/50/42
f 33/54/45 31/66/45 164/191/45 167/55/45
f 101/158/58 100/79/58 200/80/58 201/192/58
f 108/82/2 109/132/2 142/193/2 139/83/2
f 102/159/57 101/158/57 201/192/57 202/194/57
f 109/132/56 110/134/56 145/195/56 142/193/56
f 10/30/33 12/36/33 141/74/33 138/196/33
f 27/65/39 30/69/39 165/77/39 162/197/39
f 110/134/55 111/136/55 148/198/55 145/195/55
f 13/31/33 11/27/33 137/199/33 140/190/33
f 31/66/39 28/61/39 161/200/39 164/191/39
f 111/136/36 112/138/36 151/201/36 148/198/36
f 112/138/60 113/140/60 154/202/60 151/201/60
f 8/26/23 10/30/23 138/196/23 135/203/23
f 113/140/59 114/142/59 157/204/59 154/202/59
f 11/27/23 9/23/23 134/205/23 137/199/23
f 24/60/26 27/65/26 162/197/26 159/206/26
f 42/8/60 2/10/60 128/207/60 181/208/60
f 114/142/5 115/144/5 160/209/5 157/204/5
f 28/61/26 25/57/26 158/210/26 161/200/26
f 202/194/101 181/208/101 128/207/101 183/211/101
f 184/212/102 129/213/102 132/214/102 185/215/102
f 186/216/103 135/203/103 138/196/103 187/217/103
f 188/218/104 141/74/104 144/35/104 189/219/104
f 190/220/105 147/34/105 150/221/105 191/222/105
f 192/223/106 153/224/106 156/225/106 193/226/106
f 194/14/107 159/206/107 162/197/107 195/15/107
f 196/25/108 165/77/108 168/41/108 197/44/108
f 198/59/109 171/40/109 174/227/109 199/71/109
f 200/80/110 177/228/110 180/229/110 201/192/110
f 179/63/111 178/230/111 182/21/111 125/64/111
f 173/7/112 172/231/112 175/232/112 176/233/112
f 167/55/113 166/234/113 169/235/113 170/6/113
f 161/200/114 160/209/114 163/236/114 164/191/114
f 155/237/115 154/202/115 157/204/115 158/210/115
f 149/238/116 148/198/116 151/201/116 152/239/116
f 143/50/117 142/193/117 145/195/117 146/51/117
f 137/199/118 136/73/118 139/83/118 140/190/118
f 131/240/119 130/47/119 133/68/119 134/205/119
f 124/241/120 123/20/120 126/29/120 127/242/120
f 19/45/58 17/42/58 146/51/58 149/238/58
f 94/13/59 93/169/59 193/226/59 194/14/59
f 34/39/2 36/75/2 174/227/2 171/40/2
f 16/33/58 18/48/58 150/221/58 147/34/58
f 93/169/60 92/171/60 192/223/60 193/226/60
f 92/171/36 91/173/36 191/222/36 192/223/36
f 39/76/56 37/4/56 173/7/56 176/233/56
f 21/49/57 19/45/57 149/238/57 152/239/57
f 3/3/60 1/2/60 125/64/60 124/241/60
f 91/173/55 90/175/55 190/220/55 191/222/55
f 36/75/56 38/78/56 177/228/56 174/227/56
f 18/48/57 20/52/57 153/224/57 150/221/57
f 90/175/56 89/177/56 189/219/56 190/220/56
f 5/11/59 3/3/59 124/241/59 127/242/59
f 89/177/2 88/179/2 188/218/2 189/219/2
f 41/62/55 39/76/55 176/233/55 179/63/55
f 23/53/8 21/49/8 152/239/8 155/237/8
f 2/10/59 4/16/59 129/213/59 128/207/59
f 121/156/57 122/18/57 182/21/57 178/230/57
f 88/179/20 87/181/20 187/217/20 188/218/20
f 38/78/55 40/81/55 180/229/55 177/228/55
f 20/52/8 22/56/8 156/225/8 153/224/8
f 120/154/58 121/156/58 178/230/58 175/232/58
f 87/181/45 86/183/45 186/216/45 187/217/45
f 40/81/36 42/8/36 181/208/36 180/229/36
f 7/17/5 5/11/5 127/242/5 131/240/5
f 119/152/17 120/154/17 175/232/17 172/231/17
f 86/183/39 85/185/39 185/215/39 186/216/39
f 4/16/5 6/22/5 132/214/5 129/213/5
f 118/150/42 119/152/42 172/231/42 169/235/42
f 85/185/26 84/187/26 184/212/26 185/215/26
f 25/57/14 23/53/14 155/237/14 158/210/14
f 117/148/33 118/150/33 169/235/33 166/234/33
f 84/187/14 83/189/14 183/211/14 184/212/14
f 22/56/14 24/60/14 159/206/14 156/225/14
f 9/23/11 7/17/11 131/240/11 134/205/11
f 116/146/23 117/148/23 166/234/23 163/236/23
f 83/189/8 102/159/8 202/194/8 183/211/8
f 6/22/11 8/26/11 135/203/11 132/214/11
f 115/144/11 116/146/11 163/236/11 160/209/11
usemtl TomatoLight
f 183/211/121 128/207/121 129/213/121 184/212/121
f 185/215/122 132/214/122 135/203/122 186/216/122
f 187/217/103 138/196/103 141/74/103 188/218/103
f 189/219/123 144/35/123 147/34/123 190/220/123
f 191/222/106 150/221/106 153/224/106 192/223/106
f 193/226/124 156/225/124 159/206/124 194/14/124
f 195/15/125 162/197/125 165/77/125 196/25/125
f 197/44/108 168/41/108 171/40/108 198/59/108
f 199/71/126 174/227/126 177/228/126 200/80/126
f 201/192/101 180/229/101 181/208/101 202/194/101
f 176/233/127 175/232/127 178/230/127 179/63/127
f 170/6/128 169/235/128 172/231/128 173/7/128
f 164/191/129 163/236/129 166/234/129 167/55/129
f 158/210/130 157/204/130 160/209/130 161/200/130
f 152/239/131 151/201/131 154/202/131 155/237/131
f 146/51/132 145/195/132 148/198/132 149/238/132
f 140/190/133 139/83/133 142/193/133 143/50/133
f 134/205/134 133/68/134 136/73/134 137/199/134
f 127/242/135 126/29/135 130/47/135 131/240/135
f 125/64/136 182/21/136 123/20/136 124/241/136
